<?xml version="1.0" standalone="no"?>
<!DOCTYPE svg PUBLIC "-//W3C//DTD SVG 20010904//EN"
 "http://www.w3.org/TR/2001/REC-SVG-20010904/DTD/svg10.dtd">
<svg version="1.0" xmlns="http://www.w3.org/2000/svg"
 width="32.000000pt" height="32.000000pt" viewBox="0 0 32.000000 32.000000"
 preserveAspectRatio="xMidYMid meet">

<g transform="translate(0.000000,32.000000) scale(0.100000,-0.100000)"
fill="#000000" stroke="none">
<path d="M55 249 c-15 -23 14 -30 111 -27 80 2 99 6 99 18 0 12 -19 16 -102
18 -67 2 -104 -1 -108 -9z"/>
<path d="M55 169 c-15 -23 14 -30 111 -27 80 2 99 6 99 18 0 12 -19 16 -102
18 -67 2 -104 -1 -108 -9z"/>
<path d="M155 90 c-13 -21 11 -31 61 -28 36 2 49 7 49 18 0 19 -99 27 -110 10z"/>
</g>
</svg>
