<svg width="55" height="42" viewBox="0 0 55 42" fill="none" xmlns="http://www.w3.org/2000/svg">
<rect x="0.678711" y="0.8396" width="54.3209" height="40.3209" rx="20.1604" fill="#54CF00"/>
<path d="M25.9996 22.8396L36.9996 11.8396M25.9996 22.8396L29.4996 29.8396C29.5435 29.9353 29.6139 30.0165 29.7025 30.0734C29.7912 30.1302 29.8943 30.1605 29.9996 30.1605C30.1049 30.1605 30.208 30.1302 30.2966 30.0734C30.3853 30.0165 30.4557 29.9353 30.4996 29.8396L36.9996 11.8396M25.9996 22.8396L18.9996 19.3396C18.9038 19.2957 18.8227 19.2253 18.7658 19.1367C18.7089 19.048 18.6787 18.9449 18.6787 18.8396C18.6787 18.7343 18.7089 18.6312 18.7658 18.5425C18.8227 18.4539 18.9038 18.3835 18.9996 18.3396L36.9996 11.8396" stroke="#FEFEFE" stroke-width="2" stroke-linecap="round" stroke-linejoin="round"/>
</svg>
