<svg width="70" height="84" viewBox="0 0 70 84" fill="none" xmlns="http://www.w3.org/2000/svg">
<g filter="url(#filter0_dd_948_4561)">
<path fill-rule="evenodd" clip-rule="evenodd" d="M35 67C48.8071 67 60 55.8071 60 42C60 28.1929 48.8071 17 35 17C21.1929 17 10 28.1929 10 42C10 55.8071 21.1929 67 35 67Z" fill="white"/>
<path d="M58.5 42C58.5 54.9787 47.9787 65.5 35 65.5C22.0213 65.5 11.5 54.9787 11.5 42C11.5 29.0213 22.0213 18.5 35 18.5C47.9787 18.5 58.5 29.0213 58.5 42Z" stroke="white" stroke-width="3"/>
</g>
<path d="M40.2 37.7733C39.5888 37.1559 38.8608 36.6664 38.0585 36.3333C37.2561 36.0002 36.3954 35.8303 35.5267 35.8333C31.8867 35.8333 28.92 38.8 28.92 42.44C28.92 43.6066 29.2267 44.74 29.8 45.74L28.8667 49.1666L32.3667 48.2466C33.3334 48.7733 34.42 49.0533 35.5267 49.0533C39.1667 49.0533 42.1334 46.0866 42.1334 42.4466C42.1334 40.68 41.4467 39.02 40.2 37.7733ZM35.5267 47.9333C34.54 47.9333 33.5734 47.6666 32.7267 47.1666L32.5267 47.0466L30.4467 47.5933L31 45.5666L30.8667 45.36C30.3185 44.4846 30.0275 43.4728 30.0267 42.44C30.0267 39.4133 32.4934 36.9466 35.52 36.9466C36.9867 36.9466 38.3667 37.52 39.4 38.56C39.9117 39.0693 40.3172 39.6751 40.593 40.3422C40.8688 41.0094 41.0094 41.7247 41.0067 42.4466C41.02 45.4733 38.5534 47.9333 35.5267 47.9333ZM38.54 43.8266C38.3734 43.7466 37.56 43.3466 37.4134 43.2866C37.26 43.2333 37.1534 43.2066 37.04 43.3666C36.9267 43.5333 36.6134 43.9066 36.52 44.0133C36.4267 44.1266 36.3267 44.14 36.16 44.0533C35.9934 43.9733 35.46 43.7933 34.8334 43.2333C34.34 42.7933 34.0134 42.2533 33.9134 42.0866C33.82 41.92 33.9 41.8333 33.9867 41.7466C34.06 41.6733 34.1534 41.5533 34.2334 41.46C34.3134 41.3666 34.3467 41.2933 34.4 41.1866C34.4534 41.0733 34.4267 40.98 34.3867 40.9C34.3467 40.82 34.0134 40.0066 33.88 39.6733C33.7467 39.3533 33.6067 39.3933 33.5067 39.3866H33.1867C33.0734 39.3866 32.9 39.4266 32.7467 39.5933C32.6 39.76 32.1734 40.16 32.1734 40.9733C32.1734 41.7866 32.7667 42.5733 32.8467 42.68C32.9267 42.7933 34.0134 44.46 35.6667 45.1733C36.06 45.3466 36.3667 45.4466 36.6067 45.52C37 45.6466 37.36 45.6266 37.6467 45.5866C37.9667 45.54 38.6267 45.1866 38.76 44.8C38.9 44.4133 38.9 44.0866 38.8534 44.0133C38.8067 43.94 38.7067 43.9066 38.54 43.8266Z" fill="#111111"/>
<defs>
<filter id="filter0_dd_948_4561" x="0" y="0" width="70" height="84" filterUnits="userSpaceOnUse" color-interpolation-filters="sRGB">
<feFlood flood-opacity="0" result="BackgroundImageFix"/>
<feColorMatrix in="SourceAlpha" type="matrix" values="0 0 0 0 0 0 0 0 0 0 0 0 0 0 0 0 0 0 127 0" result="hardAlpha"/>
<feOffset dy="7"/>
<feGaussianBlur stdDeviation="5"/>
<feColorMatrix type="matrix" values="0 0 0 0 0.294118 0 0 0 0 0.294118 0 0 0 0 0.294118 0 0 0 0.1 0"/>
<feBlend mode="normal" in2="BackgroundImageFix" result="effect1_dropShadow_948_4561"/>
<feColorMatrix in="SourceAlpha" type="matrix" values="0 0 0 0 0 0 0 0 0 0 0 0 0 0 0 0 0 0 127 0" result="hardAlpha"/>
<feOffset dy="-7"/>
<feGaussianBlur stdDeviation="5"/>
<feColorMatrix type="matrix" values="0 0 0 0 0.294118 0 0 0 0 0.294118 0 0 0 0 0.294118 0 0 0 0.01 0"/>
<feBlend mode="normal" in2="effect1_dropShadow_948_4561" result="effect2_dropShadow_948_4561"/>
<feBlend mode="normal" in="SourceGraphic" in2="effect2_dropShadow_948_4561" result="shape"/>
</filter>
</defs>
</svg>
