<svg width="104" height="62" viewBox="0 0 104 62" fill="none" xmlns="http://www.w3.org/2000/svg">
<g id="Group 35551">
<path id="Vector" d="M89.1501 25.9064L89.3347 24.5969C90.2888 15.9694 83.1022 0.463013 63.6353 0.463013C44.1683 0.463013 33.55 12.9883 33.55 12.9883C23.0086 20.3371 26.7635 33.571 26.7635 33.571H41.1213C41.0828 36.3134 40.9367 55.2476 44.3222 59.4304C47.2461 63.0509 48.6696 58.7603 48.6696 55.0396C48.6696 50.9955 53.0092 36.7832 54.0095 33.5479H86.6494C86.6494 33.5479 86.8494 33.2013 87.1495 32.5696C87.5342 32.8238 88.0113 33.0318 88.6114 33.2167C94.3438 34.8729 97.6909 39.2251 96.0289 45.7882C95.121 49.3856 90.1965 51.2574 85.0258 52.1587C79.7628 53.0599 77.693 54.3926 77.9623 58.0439C78.1931 61.2407 82.1327 62.2652 85.2413 61.9186C90.2427 61.3562 103.862 57.3737 103.554 43.847C103.269 30.8287 92.9819 26.9001 89.1424 25.8987L89.1501 25.9064ZM0.433105 33.3939C0.433105 33.3939 1.57188 29.8042 4.99591 29.5654C8.41993 29.3266 17.7687 25.4597 17.7687 25.4597L20.077 33.5171L0.433105 33.3939Z" fill="#F4C48C"/>
<path id="Vector_2" d="M0.433105 33.3938C0.433105 33.3938 1.57188 29.8042 4.99591 29.5654C8.41993 29.3266 17.7687 25.4596 17.7687 25.4596L20.077 33.5171L0.433105 33.3938Z" fill="url(#paint0_linear_1352_10283)"/>
<path id="Vector_3" d="M52.9089 1.79579C40.3054 5.03111 33.5497 12.9807 33.5497 12.9807C23.0083 20.3295 26.7632 33.5635 26.7632 33.5635H41.121C41.0825 36.3058 40.9363 55.2401 44.3219 59.4229C47.2458 63.0433 48.6692 58.7527 48.6692 55.0321C48.6692 50.988 53.0089 36.7757 54.0092 33.5404H54.0862L52.9012 1.7804L52.9089 1.79579Z" fill="url(#paint1_linear_1352_10283)"/>
<path id="Vector_4" d="M42.1062 15.4381C40.9991 13.8616 39.5827 12.5275 37.9435 11.5173C37.4664 10.2848 36.3046 7.60407 34.2117 4.89257C30.7799 0.455572 31.057 2.95139 29.1949 6.66429C28.7255 7.61145 28.3144 8.58643 27.9638 9.58378C25.9094 9.93043 23.8857 10.7238 22.0775 12.0103C20.2309 13.3198 18.8151 14.976 17.7994 16.8324C16.7244 16.8305 15.6503 16.8949 14.5831 17.025C10.4743 17.5411 8.21215 16.455 11.2515 21.1847C12.6726 23.375 14.404 25.347 16.3913 27.0391C16.7991 28.7954 17.7225 31.5839 18.2534 33.5636C18.2534 33.5636 36.6277 33.6946 37.1586 33.3633C43.899 29.1574 46.6998 21.9319 42.1062 15.4459V15.4381Z" fill="#F4C48C"/>
<path id="Vector_5" d="M29.7486 34.6958C36.2333 34.6958 41.4903 29.5053 41.4903 23.1026C41.4903 16.6998 36.2333 11.5094 29.7486 11.5094C23.2638 11.5094 18.0068 16.6998 18.0068 23.1026C18.0068 29.5053 23.2638 34.6958 29.7486 34.6958Z" fill="url(#paint2_radial_1352_10283)"/>
<path id="Vector_6" d="M23.6546 28.4875C22.7082 28.4875 21.9619 28.2102 21.9003 28.1793C21.8079 28.1418 21.7337 28.0696 21.6937 27.9781C21.6537 27.8867 21.651 27.7832 21.6861 27.6897C21.7213 27.5963 21.7915 27.5202 21.8818 27.4779C21.9721 27.4355 22.0754 27.4302 22.1696 27.463C22.185 27.4707 23.8624 28.0792 25.1243 27.3551C25.8399 26.9468 26.3015 26.1765 26.5093 25.0673C26.528 24.9673 26.5854 24.8789 26.669 24.8212C26.7526 24.7634 26.8556 24.7411 26.9556 24.7592C27.0554 24.7779 27.1437 24.8354 27.2014 24.9191C27.259 25.0027 27.2813 25.1059 27.2633 25.2059C27.0171 26.554 26.417 27.5015 25.4936 28.0253C24.9011 28.3719 24.2394 28.4875 23.6469 28.4875H23.6546ZM31.5645 22.7718H31.4337C31.2183 22.7641 31.049 22.5792 31.0721 22.3712C31.073 22.3203 31.0842 22.2701 31.1051 22.2236C31.1259 22.1771 31.1559 22.1354 31.1933 22.1008C31.2307 22.0663 31.2747 22.0397 31.3226 22.0226C31.3705 22.0055 31.4214 21.9983 31.4722 22.0014C31.4953 22.0014 33.2727 22.0785 34.2576 21C34.8116 20.3992 35.027 19.521 34.8731 18.4041C34.8423 18.1961 34.9963 18.0035 35.204 17.9727C35.3046 17.9616 35.4056 17.9899 35.4859 18.0516C35.5662 18.1133 35.6196 18.2037 35.6349 18.3039C35.8119 19.6597 35.5349 20.7458 34.8116 21.5239C33.7344 22.6793 32.0416 22.7718 31.5568 22.7718H31.5645Z" fill="#E29B74"/>
<path id="Vector_7" d="M30.6722 27.2009L32.0341 26.2611C32.0914 26.2218 32.1586 26.1995 32.228 26.1967C32.2974 26.1939 32.3662 26.2108 32.4265 26.2454C32.4867 26.28 32.536 26.3309 32.5687 26.3922C32.6013 26.4536 32.6161 26.523 32.6112 26.5923L32.5342 27.8248C32.5188 28.0559 32.3034 28.21 32.0725 28.1638L30.7953 27.8556C30.4875 27.7786 30.4105 27.3703 30.6722 27.1855V27.2009Z" fill="#FFDDD2"/>
<path id="Vector_8" d="M91.4581 51.8045C89.5345 52.4593 86.6491 52.5286 83.856 52.3822C79.4702 53.2912 77.7158 54.6701 77.9697 58.044C78.2006 61.2408 82.1401 62.2653 85.2487 61.9187C90.2501 61.3564 103.869 57.3738 103.561 43.8472C103.485 40.7659 102.854 38.2008 101.884 36.067C98.6062 47.9606 96.1286 50.2099 91.4504 51.8122L91.4581 51.8045Z" fill="url(#paint3_linear_1352_10283)"/>
<path id="Vector_9" d="M61.5265 15.8542C61.5265 15.8542 60.3108 20.3528 60.9648 22.6021C61.6188 24.8515 62.9346 26.4537 64.5196 27.3781C66.1124 28.3179 69.5749 29.535 69.5749 29.535C69.5749 29.535 62.3421 28.1638 60.8648 30.9446C60.1492 32.2927 60.1722 33.5868 60.1722 33.5868L54.0167 33.5637C54.0167 33.5637 54.5553 28.3256 52.1162 22.7023C50.6081 19.2205 58.5333 14.2751 61.5265 15.8465V15.8542Z" fill="url(#paint4_linear_1352_10283)"/>
<g id="Group">
<path id="Vector_10" d="M24.3782 16.9326L24.8014 17.0713L24.432 17.3177L24.3782 16.9326ZM13.606 17.2946L14.0522 17.2407L13.8214 17.6259L13.606 17.2946ZM27.7253 13.5201L28.1869 13.5663L27.8791 13.8744L27.7253 13.5201ZM29.7104 7.86602L28.587 7.98156L29.0333 7.0726L29.7104 7.86602ZM29.0179 9.35272L28.6948 10.0768L28.21 9.63004L29.0179 9.35272ZM29.8258 5.87091L29.8643 5.46265L30.2029 5.63212L29.8258 5.87091ZM25.7478 13.7666L25.1092 14.4368L25.0168 13.5663L25.7478 13.7666ZM22.493 14.4599L22.2237 15.3457L21.7467 14.6294L22.493 14.4599ZM30.0721 6.5796L29.1949 6.8415L29.5411 6.04038L30.0721 6.5796ZM16.7453 17.572L16.3913 17.803L16.5222 17.4179L16.7453 17.572ZM24.5398 13.9361L24.2474 14.2981L24.2243 13.8205L24.5398 13.9361ZM28.1562 9.0446L28.564 8.25117L28.8564 9.0446H28.1562ZM26.1864 15.0993L26.4711 16.0467L25.5093 15.6616L26.1864 15.0993ZM27.0943 13.7358L27.379 14.691L26.4172 14.2904L27.0943 13.7358ZM25.5785 10.9011L25.8632 11.8562L24.9014 11.4711L25.5785 10.9011ZM25.4862 11.9564L25.7709 12.9116L24.8091 12.5264L25.4862 11.9564ZM21.0003 19.7905L21.0927 19.4053L21.3235 19.7134L21.0003 19.7905ZM26.5788 12.2876L26.271 13.135L25.8093 12.4417L26.5788 12.2876ZM18.869 17.8493L18.7151 18.2344L18.6073 17.8493H18.869ZM28.1408 10.5313L28.7563 11.0551L27.9099 11.4557L27.8484 11.6251L27.5021 11.2939L27.9484 11.0474L28.1408 10.5313ZM24.8629 14.9991L24.9245 15.3843L24.5859 15.1917L24.8629 14.9991ZM26.6557 10.8702L26.548 11.9872L25.7016 11.1784L26.6557 10.8702ZM27.0635 9.7764L28.0253 9.5299L27.6637 10.4774L27.0635 9.7764ZM27.7868 11.7638L27.556 12.4802L26.9943 11.9102L27.7868 11.7638Z" fill="#FFCFA4"/>
<path id="Vector_11" d="M27.2328 12.434L27.6636 12.7575L27.0789 13.1427L27.2328 12.434ZM26.6942 10.2771L27.2635 10.8394L26.3633 11.2246L26.6942 10.2771Z" fill="#FFCFA4"/>
<path id="Vector_12" d="M26.9483 11.186L27.3176 11.3093L27.5638 11.2554L27.4561 11.4094L27.5177 11.5019L27.3484 11.5635L27.0714 11.7715L26.9483 11.186ZM26.9406 9.76868L25.1709 10.3618L26.402 11.2631L26.9406 9.76868ZM24.463 13.081L23.8859 14.0516L23.5781 13.0348L24.463 13.081Z" fill="#FFCFA4"/>
<path id="Vector_13" d="M23.8393 11.8948L24.6088 12.6805L23.3469 13.1427L23.8393 11.8948ZM23.5777 11.1553L24.2702 11.5944L23.3931 11.941L23.5777 11.1553ZM23.5316 12.6651L22.9468 12.3878L23.3931 12.0026L23.5316 12.6651Z" fill="#FFCFA4"/>
<path id="Vector_14" d="M23.5164 12.3107L22.5161 11.8023L23.3856 11.2631L23.5164 12.3107ZM25.1938 12.8114L25.1476 13.5971L24.5321 13.366L25.1938 12.8114Z" fill="#FFCFA4"/>
<path id="Vector_15" d="M25.3091 10.2771L23.5548 11.1244L24.9398 12.2029L25.3091 10.2771ZM23.424 11.9487L24.1781 12.2106L23.5317 12.8884L23.5394 13.0733L23.0931 12.8962L23.4317 12.4956L23.424 11.9487ZM22.2544 12.873L22.5391 13.9515L21.4619 13.5124L22.2544 12.873ZM23.5317 13.2428L23.5702 13.9977L22.8392 13.6742L23.5317 13.2428Z" fill="#FFCFA4"/>
<path id="Vector_16" d="M23.2469 14.0362L23.7702 14.1903L23.3547 14.768L23.2469 14.0362ZM22.0928 12.2953L22.8238 12.6188L22.1159 13.3121L22.0928 12.2953ZM25.3398 14.1286L25.1706 14.1055L25.4552 13.6587L25.7246 14.067L26.2247 14.1286L25.7784 14.8989L25.3398 14.1286ZM22.5467 12.9732L22.9315 12.9501L23.1392 12.8114L23.093 12.9886L23.17 13.0502L23.0392 13.1735L22.8545 13.4816L22.5467 12.9732Z" fill="#FFCFA4"/>
<path id="Vector_17" d="M22.3468 11.9102L20.8079 12.9886L22.2314 13.497L22.3468 11.9102ZM14.3984 17.3177L14.8139 17.1483L14.6908 17.5797L14.3984 17.3177ZM17.8609 17.2407L18.2687 17.0635L18.1533 17.4949L17.8609 17.2407ZM20.5078 17.934L20.9156 17.7568L20.7925 18.1882L20.5078 17.934ZM23.778 14.9606L24.2089 14.8065L24.0396 15.2225L23.778 14.9606ZM24.5243 16.5782L24.4012 16.1931L24.7859 16.2162L24.5243 16.5782ZM25.1707 15.885L25.0475 15.4998L25.4323 15.5152L25.1707 15.885ZM22.6623 15.6308L22.5391 16.5551L21.9544 15.9389L22.6623 15.6308ZM21.8159 16.5089L21.7928 16.9711L21.485 16.6168L21.8159 16.5089ZM23.4625 15.4151L23.8472 15.831L23.1009 15.962L23.4625 15.4151ZM15.3064 17.0019L16.2836 16.8633L15.768 17.7645L15.3064 17.0019ZM20.8079 13.5124L21.6235 14.0516L20.6386 14.3906L20.8079 13.5124Z" fill="#FFCFA4"/>
<path id="Vector_18" d="M21.4079 14.3751L22.2004 14.9529L21.2001 15.2379L21.4079 14.3751ZM22.6698 15.3919L22.7159 16.2932L22.0234 15.8464L22.6698 15.3919ZM22.6929 17.1637L22.9699 17.4256L22.5851 17.4872L22.6929 17.1637ZM21.8465 13.0425L22.1773 14.1055L21.077 13.7204L21.8465 13.0425ZM23.1545 13.3506L23.2315 14.0978L22.4851 13.8128L23.1545 13.3506ZM22.9083 14.1671L23.4469 14.2827L23.0622 14.8835L22.9083 14.1671ZM24.0625 14.4445L23.8932 14.429L24.1625 13.9669L24.4472 14.352L24.955 14.3905L24.5395 15.1762L24.0625 14.4445ZM21.3463 15.908L21.5002 17.0327L20.623 16.455L21.3463 15.908Z" fill="#FFCFA4"/>
<path id="Vector_19" d="M20.1156 15.4228L21.1928 15.4999L20.5003 16.6861L20.1156 15.4228ZM19.4385 15.0377L20.2464 14.9221L19.7847 15.7695L19.4385 15.0377Z" fill="#FFCFA4"/>
<path id="Vector_20" d="M20.3618 16.2084L19.7462 16.3856L19.8539 15.8079L20.3618 16.2084ZM19.5692 15.8849L18.4535 15.8464L19.0306 14.9991L19.5692 15.8849ZM20.5157 16.7014L20.7157 17.4564L20.0617 17.4409L20.5157 16.7014ZM20.4079 13.3891L19.0999 14.8758L20.7926 15.2995L20.4079 13.3891ZM17.8226 16.8786L18.2997 15.9773L18.7305 16.8863L17.8226 16.8786ZM17.7995 16.8401L17.5379 17.5334L16.9839 16.9633L17.7995 16.8401ZM19.0537 17.7799L18.9306 17.8184L19.0614 17.4333L19.3307 17.6104L19.7154 17.4949L19.5154 18.1111L19.0537 17.7799ZM19.1153 16.7246L19.4769 16.5705L19.6308 16.3702L19.6462 16.5551L19.7462 16.5782L19.6539 16.7323L19.5769 17.0789L19.1153 16.7246ZM40.6905 7.4808L40.9983 7.80433L40.5597 7.85826L40.6905 7.4808ZM54.5097 5.37014L54.956 5.44718L54.6174 5.73219L54.5097 5.37014ZM50.0238 8.64398L50.4701 8.72102L50.1393 9.01372L50.0238 8.64398ZM55.4253 9.16779L55.8716 9.24482L55.5331 9.52984L55.4253 9.16779ZM50.8625 12.1489L51.3088 12.2259L50.9703 12.5187L50.8625 12.1489ZM56.0332 1.13342L55.6639 1.82671L55.2022 1.34141L56.0332 1.13342ZM52.0013 5.52421L51.2857 6.08654L51.3088 5.21608L52.0013 5.52421ZM47.8001 5.85544L47.2077 6.57184L47.0384 5.72449L47.8001 5.85544ZM50.6471 5.4857L50.2624 5.76301L50.3547 5.30082L50.6471 5.4857ZM52.2475 6.91077L52.4014 7.89678L51.5012 7.37296L52.2475 6.91077ZM43.8375 8.71331L43.976 9.69931L43.0835 9.1755L43.8375 8.71331ZM47.6847 8.23572L47.8386 9.22172L46.9461 8.68249L47.6847 8.23572ZM55.8716 6.83374L56.0255 7.81204L55.133 7.28822L55.8716 6.83374ZM53.8326 5.53961L54.0481 6.51021L53.1247 6.04802L53.8326 5.53961ZM52.2398 2.67405L52.3783 3.66006L51.4858 3.13624L52.2398 2.67405ZM51.9936 3.70628L52.1475 4.69227L51.255 4.16846L51.9936 3.70628ZM42.7757 8.40519L43.045 8.09705L43.0911 8.4822L42.7757 8.40519ZM53.4171 4.06061L53.0554 4.89255L52.64 4.16076L53.4171 4.06061ZM42.1678 7.58865L41.8369 7.85826L41.9293 7.4731L42.1678 7.58865ZM55.1484 1.99618L55.7254 2.55081L54.8637 2.89745L54.7867 3.06691L54.4635 2.71257L54.9252 2.49688L55.1484 1.99618ZM50.6855 6.60265L50.6548 6.9878L50.3701 6.7259L50.6855 6.60265ZM49.8623 10.9164L49.8315 11.3015L49.5468 11.0396L49.8623 10.9164ZM53.5864 2.65094L53.4017 3.76019L52.6015 2.88975L53.5864 2.65094ZM54.0942 1.5417L55.0637 1.35682L54.6405 2.28119L54.0942 1.5417Z" fill="#FFCFA4"/>
<path id="Vector_21" d="M54.6788 3.63698L54.4019 4.33027L53.8632 3.71402L54.6788 3.63698ZM54.0787 4.25324L54.4942 4.60759L53.8786 4.95422L54.0787 4.25324ZM52.6937 5.13139L53.1092 5.48574L52.4937 5.84008L52.6937 5.13139ZM53.694 2.06555L54.2326 2.66639L53.3093 2.99764L53.694 2.06555Z" fill="#FFCFA4"/>
<path id="Vector_22" d="M53.8862 2.98987L54.2402 3.14393L54.4864 3.10543L54.371 3.24408L54.4248 3.33651L54.2555 3.39044L53.9631 3.58302L53.8862 2.98987ZM53.9631 1.5802L52.1473 2.0578L53.3014 3.03609L53.9631 1.5802ZM50.8392 4.66145L50.1236 5.53961L49.9697 4.48428L50.8392 4.66145Z" fill="#FFCFA4"/>
<path id="Vector_23" d="M50.3929 3.41362L51.0392 4.29178L49.7158 4.56909L50.3929 3.41362ZM50.239 2.64331L50.8546 3.18253L49.9312 3.39821L50.239 2.64331Z" fill="#FFCFA4"/>
<path id="Vector_24" d="M49.9855 4.00671L49.4854 3.59844L50.0086 3.34424L49.9855 4.00671Z" fill="#FFCFA4"/>
<path id="Vector_25" d="M50.0466 3.65234L49.2002 2.92055L50.1697 2.61243L50.0466 3.65234ZM51.6009 4.49969L51.447 5.27L50.8776 4.94647L51.6009 4.49969Z" fill="#FFCFA4"/>
<path id="Vector_26" d="M52.0857 2.01929L50.2237 2.60472L51.4548 3.86803L52.0857 2.01929ZM50.0467 3.2826L50.7161 3.72167L49.9313 4.23008L49.8851 4.40725L49.5004 4.12224L49.9236 3.81412L50.0467 3.2826ZM48.6771 3.89885L48.6925 5.0158L47.7461 4.32251L48.6771 3.89885ZM49.8467 4.55361L49.6928 5.29312L49.0618 4.80781L49.8467 4.55361Z" fill="#FFCFA4"/>
<path id="Vector_27" d="M49.3699 5.27009L49.8315 5.5397L49.2929 6.00189L49.3699 5.27009ZM48.6773 3.2981L49.3083 3.78338L48.4619 4.28409L48.6773 3.2981ZM51.5628 5.84012L51.4089 5.7939L51.7551 5.39335L51.9629 5.83242L52.4476 5.97108L51.8936 6.66436L51.5628 5.84012ZM48.9467 4.06841L49.3314 4.14543L49.5622 4.06841L49.4699 4.22247L49.5468 4.29949L49.3929 4.37653L49.139 4.62303L48.9467 4.06841Z" fill="#FFCFA4"/>
<path id="Vector_28" d="M49.0157 2.98987L47.246 3.68316L48.5079 4.51508L49.0157 2.98987ZM42.3985 6.44087L42.8371 6.47938L42.5293 6.80291L42.3985 6.44087ZM40.4902 8.08935L40.9365 8.12785L40.6288 8.45139L40.4902 8.08935ZM49.6697 6.30221L50.1314 6.27141L49.8698 6.63344L49.6697 6.30221ZM50.0006 8.05083L49.9698 7.65026L50.3315 7.7581L50.0006 8.05083ZM46.7228 13.235L46.692 12.8268L47.0536 12.9346L46.7228 13.235ZM47.3075 11.1937L47.2844 10.7854L47.6461 10.901L47.3075 11.1937ZM44.9222 12.5803L44.8915 12.172L45.2531 12.2798L44.9222 12.5803ZM51.1317 7.57323L51.0701 7.17267L51.4395 7.2497L51.1317 7.57323ZM48.1924 6.85684L47.7307 7.66567L47.4229 6.86454L48.1924 6.85684ZM46.3842 7.51161L46.1841 7.93527L46.0456 7.48849L46.3842 7.51161ZM49.2465 6.68737L49.5159 7.18037L48.7618 7.12645L49.2465 6.68737ZM46.6073 4.36102L47.1614 5.16985L46.1226 5.10823L46.6073 4.36102ZM46.8228 5.37784L47.3306 6.20978L46.2996 6.09423L46.8228 5.37784ZM48.3924 4.93106L48.0847 5.77841L47.6076 5.08512L48.3924 4.93106ZM42.0676 8.21259L42.1907 8.57465L41.8214 8.45139L42.0676 8.21259Z" fill="#FFCFA4"/>
<path id="Vector_29" d="M47.2386 3.69861L47.2693 4.81557L46.3075 4.14539L47.2386 3.69861ZM49.4469 4.57676L49.3315 5.31627L48.6851 4.85408L49.4469 4.57676ZM49.0006 5.30086L49.4853 5.54737L48.9621 6.03265L49.0006 5.30086ZM48.1388 6.11739L47.9695 6.07888L48.3004 5.65521L48.5312 6.09428L49.0237 6.20212L48.5005 6.91852L48.1388 6.11739ZM46.1844 6.73364L45.9074 7.83519L45.3149 6.97244L46.1844 6.73364Z" fill="#FFCFA4"/>
<path id="Vector_30" d="M45.2378 5.84013L46.1996 6.32543L45.1224 7.17278L45.2378 5.84013ZM44.7761 5.22389L45.561 5.42416L44.8223 6.04041L44.7761 5.22389ZM45.0993 6.68747L44.4684 6.55652L44.83 6.09433L45.0993 6.68747ZM44.5607 6.0327L43.5835 5.47808L44.4914 5.00049L44.5607 6.0327Z" fill="#FFCFA4"/>
<path id="Vector_31" d="M44.9993 7.20357L44.83 7.97388L44.2607 7.66576L44.9993 7.20357ZM46.2766 4.0684L44.5069 4.94656L45.915 5.97877L46.2766 4.0684ZM65.5589 4.37652L65.9667 4.5768L65.5589 4.75398V4.37652ZM69.1214 4.95426L69.5292 5.15453L69.1214 5.33941V4.95426ZM66.6592 3.45215L67.067 3.65243L66.6669 3.83731L66.6592 3.45215ZM59.2494 5.76309L59.8958 6.0558L59.2494 6.33311V5.76309ZM67.7133 3.42904L68.3597 3.72175L67.721 3.99906L67.7133 3.42904ZM69.5908 2.72036L70.2371 3.01307L69.5908 3.28268V2.72036ZM71.7606 1.47244L72.4531 1.65732L71.8683 2.04248L71.7606 1.47244ZM72.6608 1.75746L73.3379 1.96544L72.7378 2.31979L72.6608 1.75746ZM56.3486 5.36252L56.995 5.65524L56.3486 5.93256V5.36252ZM56.4487 7.19587L57.095 7.48858L56.4487 7.76589V7.19587ZM53.2939 7.99699L53.9403 8.2897L53.3016 8.56702L53.2939 7.99699ZM48.1233 7.90455L48.7696 8.21268L48.131 8.48228L48.1233 7.90455ZM43.0449 10.5544L43.6913 10.8626L43.0449 11.1322V10.5544ZM44.8762 8.45917L45.5226 8.76731L44.8762 9.0369V8.45917ZM63.843 4.91574L64.2508 5.11603L63.8507 5.2932L63.843 4.91574ZM68.2289 0.725237L67.6748 1.29527L67.3671 0.709839L68.2289 0.725237ZM63.1197 3.80649L62.2733 4.14543L62.5504 3.31349L63.1197 3.80649ZM58.9955 2.92833L58.2261 3.44444L58.303 2.5971L58.9955 2.92833ZM61.8424 3.36741L61.4039 3.52147L61.6193 3.0978L61.8424 3.36741ZM56.0331 4.16853L55.8947 5.14683L55.1868 4.39193L56.0331 4.16853ZM58.8416 3.70635L58.7801 4.70775L58.0106 4.01447L58.8416 3.70635ZM64.4817 1.01026L64.3278 1.99626L63.6199 1.22595L64.4817 1.01026ZM63.6353 2.06558L63.4968 3.05158L62.7889 2.28127L63.6353 2.06558ZM64.9049 2.80509L64.3201 3.49837L64.1277 2.68184L64.9049 2.80509ZM67.1516 1.31838L67.5364 2.01166L66.613 2.08869L66.4899 2.22736L66.2822 1.79597L66.79 1.71895L67.1516 1.31838ZM70.8681 1.41081L71.2528 2.1041L70.3294 2.18113L70.214 2.3352L69.9986 1.89611L70.5064 1.81908L70.8681 1.41081ZM61.5578 4.46896L61.4193 4.831L61.2192 4.49977L61.5578 4.46896ZM58.6339 5.57821L58.4954 5.94026L58.303 5.60903L58.6339 5.57821ZM58.1953 8.10483L58.0568 8.46688L57.8567 8.13565L58.1953 8.10483ZM65.4588 1.50326L64.9664 2.50467L64.4432 1.44933L65.4588 1.50326Z" fill="#FFCFA4"/>
<path id="Vector_32" d="M66.2515 0.578857L67.2518 0.67899L66.5823 1.4493L66.2515 0.578857ZM66.2053 2.73572L65.7436 3.32887L65.4051 2.59707L66.2053 2.73572ZM67.6672 2.58166L67.2056 3.17481L66.8747 2.44301L67.6672 2.58166ZM68.5367 1.54945L68.0751 2.14259L67.7365 1.41078L68.5367 1.54945ZM65.4743 3.1671L65.7667 3.62929L65.0742 3.78335L65.4743 3.1671ZM68.5367 2.12718L68.8445 2.58936L68.152 2.74343L68.5367 2.12718ZM65.7206 0.971713L66.0591 1.70351L65.0819 1.75743L65.7206 0.971713ZM65.6436 1.89609L65.9514 2.14259L66.1976 2.1734L66.0437 2.28124L66.0745 2.38139H65.8898L65.559 2.48152L65.6436 1.89609Z" fill="#FFCFA4"/>
<path id="Vector_33" d="M66.1129 0.571148L64.2355 0.509521L65.0818 1.78824L66.1129 0.571148ZM70.3756 1.23362L68.5443 0.817654L69.1214 2.22733L70.3756 1.23362ZM62.2503 2.64329L61.3115 3.29035L61.4654 2.23503L62.2503 2.64329Z" fill="#FFCFA4"/>
<path id="Vector_34" d="M62.1657 1.31832L62.535 2.34284L61.1885 2.235L62.1657 1.31832ZM62.2426 0.524902L62.6735 1.21818L61.7348 1.16426L62.2426 0.524902Z" fill="#FFCFA4"/>
<path id="Vector_35" d="M61.6037 1.77278L61.2344 1.23357L61.8038 1.13342L61.6037 1.77278Z" fill="#FFCFA4"/>
<path id="Vector_36" d="M61.7576 1.44934L61.1421 0.50186L62.1578 0.48645L61.7576 1.44934ZM63.0195 2.71265L62.6502 3.40594L62.1885 2.94375L63.0195 2.71265Z" fill="#FFCFA4"/>
<path id="Vector_37" d="M64.1817 0.447876L62.2273 0.486394L63.0506 2.04243L64.1817 0.447876ZM61.8734 1.09495L62.3889 1.71119L61.4886 1.9731L61.3963 2.12716L61.1039 1.74201L61.5964 1.57254L61.8734 1.09495ZM60.396 1.29522L60.0882 2.37366L59.3804 1.44928L60.396 1.29522ZM61.3193 2.25812L60.9654 2.92828L60.5037 2.28122L61.3193 2.25812Z" fill="#FFCFA4"/>
<path id="Vector_38" d="M60.6654 2.81275L61.0501 3.19791L60.3961 3.49063L60.6654 2.81275ZM60.5422 0.73291L61.0039 1.37227L60.0498 1.61876L60.5422 0.73291ZM63.1199 3.81416L62.966 3.84497L63.0814 3.32886L63.4661 3.62158L63.9585 3.50603L63.8047 4.37648L63.1199 3.81416ZM60.6038 1.56485L60.9423 1.74202L61.1963 1.72661L61.0655 1.85756L61.1116 1.95001L60.9346 1.98851L60.6269 2.14258L60.6038 1.56485Z" fill="#FFCFA4"/>
<path id="Vector_39" d="M60.9575 0.524902L59.0724 0.678962L60.0496 1.83443L60.9575 0.524902ZM60.6497 3.87577L61.096 3.9759L60.7421 4.24551L60.6497 3.87577ZM60.4728 5.64748L60.5651 5.26232L60.8729 5.47031L60.4728 5.64748ZM66.9669 5.72451L67.0438 5.32395L67.3516 5.53963L66.9669 5.72451ZM61.7116 5.50883L61.7577 5.10056L62.0963 5.27773L61.7116 5.50883ZM68.7366 3.45209L68.7905 3.04383L69.1213 3.221L68.7366 3.45209ZM57.7951 10.0537L57.8413 9.65311L58.1799 9.83027L57.7951 10.0537ZM65.2125 5.81695L65.2587 5.41639L65.5896 5.59356L65.2125 5.81695ZM58.9801 7.43461L59.0262 7.03404L59.3571 7.21121L58.9801 7.43461ZM53.6863 6.94161L54.0941 7.14959L53.6863 7.32676V6.94161ZM49.2235 9.13699L49.085 9.49904L48.885 9.16781L49.2235 9.13699ZM51.0701 9.21403L51.1625 8.82887L51.4703 9.03685L51.0701 9.21403ZM45.2993 10.3541L45.3917 9.95352L45.6994 10.1615L45.2993 10.3541ZM53.0323 9.42971L53.0784 9.02145L53.417 9.19863L53.0323 9.42971ZM51.9243 9.94583L51.9704 9.53757L52.309 9.71472L51.9243 9.94583ZM55.6176 6.40239L55.6638 5.99413L56.0023 6.17129L55.6176 6.40239ZM54.2326 8.94441L54.2788 8.53615L54.6173 8.71333L54.2326 8.94441ZM52.863 11.525L52.9168 11.1244L53.2477 11.3016L52.863 11.525ZM57.4412 5.27003L57.4873 4.86946L57.8259 5.04663L57.4412 5.27003ZM57.3334 6.56415L57.3796 6.1636L57.7182 6.33305L57.3334 6.56415ZM70.7987 3.82954L70.8449 3.42898L71.1757 3.60615L70.7987 3.82954ZM72.3915 3.30573L71.9913 3.22869L72.1837 2.89747L72.3915 3.30573ZM55.6176 3.61385L54.9482 4.26092L54.8712 3.41357L55.6176 3.61385ZM57.1565 4.10685L56.8487 4.4612L56.841 3.99901L57.1565 4.10685ZM60.1419 4.12226L60.2497 4.67689L59.5417 4.41498L60.1419 4.12226ZM58.2645 1.14885L58.5722 2.07323L57.5951 1.71889L58.2645 1.14885ZM58.1875 2.18107L58.4414 3.12085L57.4796 2.7203L58.1875 2.18107ZM59.8264 2.18878L59.2879 2.92827L59.0262 2.13485L59.8264 2.18878Z" fill="#FFCFA4"/>
<path id="Vector_40" d="M59.0648 0.694336L58.7724 1.77277L58.0491 0.848396L59.0648 0.694336ZM60.9115 2.15793L60.6037 2.8358L60.1112 2.21955L60.9115 2.15793ZM60.2959 2.73566L60.6807 3.10542L60.042 3.41354L60.2959 2.73566ZM59.2187 3.25948L59.0648 3.18244L59.5034 2.87432L59.5957 3.35191L60.0343 3.60612L59.3418 4.14533L59.2187 3.25948ZM57.1873 3.30569L56.6103 4.28399L56.2871 3.28259L57.1873 3.30569Z" fill="#FFCFA4"/>
<path id="Vector_41" d="M56.5257 2.18114L57.3105 2.92064L56.0332 3.41364L56.5257 2.18114ZM58.0261 0.779175L56.0871 1.12581L57.1412 2.51238L58.0261 0.779175ZM67.9365 26.5076L67.8596 26.0608L68.2443 26.2919L67.9365 26.5076ZM71.2451 24.4278L71.1682 23.981L71.5529 24.2121L71.2451 24.4278ZM63.7815 26.2457L64.551 26.0685L64.474 26.731L63.7815 26.2457ZM68.8599 24.7359L69.7447 24.2891L69.5293 25.3059L68.8599 24.7359ZM64.9895 26.3227L65.0434 25.5216L65.8667 25.953L66.0437 25.8991L65.9821 26.3767L65.5205 26.1687L64.9895 26.3227ZM65.3358 27.432L64.5664 26.8157L65.5435 26.5384L65.3358 27.432ZM65.7436 17.5181L66.0206 17.1637L66.1206 17.5951L65.7436 17.5181ZM67.1286 14.1672L67.4133 13.8052L67.5056 14.2442L67.1286 14.1672ZM65.1511 16.2624L65.4358 15.9081L65.5282 16.3395L65.1511 16.2624ZM66.7977 22.6561L67.0286 21.9859L67.3748 22.6021L66.7977 22.6561ZM65.3358 15.2379L65.759 14.6679L65.8898 15.3612L65.3358 15.2379ZM64.7972 14.121L65.4743 13.9284L65.1665 14.5447L64.7972 14.121ZM65.6282 11.7715L66.2668 11.4634L66.0668 12.1336L65.6282 11.7715ZM66.49 11.3864L67.1363 11.1014L66.9055 11.7638L66.49 11.3864ZM67.3133 24.7898L67.3902 24.0811L67.8519 24.6049L67.3133 24.7898ZM68.6213 24.4509L68.7521 23.7576L69.1753 24.3199L68.6213 24.4509ZM65.9591 18.8892L66.2053 18.5041L66.3438 18.9277L65.9591 18.8892ZM63.1352 14.0054L63.366 14.7604L62.712 14.7372L63.1352 14.0054ZM64.7818 19.4901L65.0127 20.3759L64.2201 20.0139L64.7818 19.4901ZM63.8815 23.0027L64.5741 23.6189L63.7276 23.7499L63.8815 23.0027ZM64.1278 20.5839L64.2817 21.023L63.8661 20.7919L64.1278 20.5839ZM66.2822 25.46L67.2594 25.2751L66.7593 26.1995L66.2822 25.46ZM64.6664 22.9411L65.6436 22.7639L65.1434 23.6729L64.6664 22.9411ZM62.2196 17.934L63.1583 18.2653L62.2734 18.8045L62.2196 17.934ZM63.1121 18.7814L64.0739 19.0356L63.2275 19.6518L63.1121 18.7814ZM64.0662 17.8724L64.6356 18.5811L63.7892 18.6042L64.0662 17.8724ZM63.1429 15.3304L63.9123 15.0993L63.8046 16.0237L63.9123 16.1623L63.4507 16.2856L63.4891 15.7695L63.1429 15.3304ZM64.9126 12.2876L65.6667 12.565L65.028 13.2351V13.42L64.5817 13.2274L64.9203 12.8423L64.9126 12.2876ZM65.1973 20.8766L65.5589 21.0307L65.2204 21.2156L65.1973 20.8766ZM66.6592 23.28L67.044 23.3802L66.7362 23.6112L66.6592 23.28ZM69.083 22.5097L69.4677 22.5559L69.1907 22.8255L69.083 22.5097ZM62.912 17.0405L63.8046 17.7337L62.6658 18.0419L62.912 17.0405ZM62.2503 16.0391L62.5581 15.0916L63.1737 15.9081L62.2503 16.0391ZM64.274 16.5552L64.7587 17.1329L63.9893 17.3178L64.274 16.5552ZM64.5048 15.0916L64.9895 15.6693L64.2047 15.8388L64.5048 15.0916ZM64.0046 14.121L64.297 14.8143L63.4968 14.7604L64.0046 14.121ZM64.5433 17.3563L65.0511 17.156L65.0742 17.8647L64.5433 17.3563ZM64.2509 14.1364L64.7587 13.9438L64.7741 14.6525L64.2509 14.1364Z" fill="#FFCFA4"/>
<path id="Vector_42" d="M62.4502 16.7015L63.2196 16.5166L63.0811 17.4872L62.4502 16.7015ZM63.4274 16.9325L63.7352 16.6861L63.8121 16.455L63.8891 16.6244H63.9968L63.9583 16.8016L63.9891 17.1482L63.4274 16.9325Z" fill="#FFCFA4"/>
<path id="Vector_43" d="M62.1423 16.2393L61.7114 18.0726L63.1272 17.5026L62.1423 16.2393ZM64.643 12.3723L63.3965 13.782L64.9123 13.9514L64.643 12.3723ZM63.435 20.1371L64.0506 21.0923L62.9964 20.9074L63.435 20.1371Z" fill="#FFCFA4"/>
<path id="Vector_44" d="M62.1039 20.1678L63.1504 19.8289L62.9965 21.1692L62.1039 20.1678ZM61.3345 20.0677L62.027 19.6594L61.95 20.5992L61.3345 20.0677Z" fill="#FFCFA4"/>
<path id="Vector_45" d="M62.5428 20.7533L62.0042 21.1L61.9272 20.5222L62.5428 20.7533Z" fill="#FFCFA4"/>
<path id="Vector_46" d="M62.2196 20.5762L61.2578 21.1539L61.2732 20.1371L62.2196 20.5762ZM63.7123 19.4515L64.3586 19.9137L63.8354 20.3143L63.7123 19.4515Z" fill="#FFCFA4"/>
<path id="Vector_47" d="M61.604 18.0342L61.4116 19.9754L63.0505 19.3437L61.604 18.0342ZM61.881 20.4607L62.4966 19.9676L62.7274 20.8689L62.8813 20.9691L62.4966 21.2464L62.3427 20.7534L61.881 20.4607ZM62.2503 22.0167L63.3506 22.1939L62.5043 23.0104L62.2503 22.0167ZM63.0198 21.0538L63.6738 21.4235L63.0121 21.8703L63.0198 21.0538Z" fill="#FFCFA4"/>
<path id="Vector_48" d="M63.5507 21.7239L63.9508 21.3618L64.2201 22.0243L63.5507 21.7239ZM61.6655 21.9242L62.2503 21.3849L62.5966 22.3093L61.6655 21.9242Z" fill="#FFCFA4"/>
<path id="Vector_49" d="M64.7971 19.4746L64.8125 19.6286L64.3123 19.4592L64.6509 19.1048L64.597 18.5964L65.4434 18.8583L64.7971 19.4746ZM62.281 21.7547L62.4733 21.4158L62.4656 21.1616L62.5965 21.3002L62.6888 21.254L62.7196 21.4312L62.8735 21.7547H62.281ZM61.373 21.4774L61.7347 23.3262L62.7811 22.2246L61.373 21.4774ZM64.6047 21.7701L64.7202 21.3233L64.974 21.6931L64.6047 21.7701ZM66.3744 22.0012L65.9897 21.9011L66.2205 21.593L66.3744 22.0012ZM67.4517 16.4396L67.0823 16.2624L67.3516 16.0005L67.4517 16.4396ZM66.2744 20.7533L65.8743 20.6917L66.059 20.3605L66.2744 20.7533ZM65.7974 14.8604L65.4665 14.6293L65.7743 14.4213L65.7974 14.8604ZM71.2219 23.6035H70.8141L70.9526 23.2491L71.2219 23.6035ZM67.1208 18.1342L66.7361 18.0033L66.9669 17.7106L67.1208 18.1342ZM68.5058 22.7099H68.098L68.2365 22.3556L68.5058 22.7099ZM68.5366 25.1133L68.1519 25.1903L68.2057 24.8206L68.5366 25.1133ZM66.536 23.9039L66.1359 23.9578L66.2129 23.5881L66.536 23.9039ZM67.821 23.6959L67.4209 23.7498L67.5132 23.3801L67.821 23.6959ZM66.4822 14.144L66.2513 13.8128L66.6207 13.7358L66.4822 14.144ZM67.3285 12.6804L66.9823 12.8884L66.9054 12.5187L67.3285 12.6804ZM65.9281 24.9284L66.8515 25.0054L66.2359 25.6217L65.9281 24.9284ZM65.4665 24.4662L65.882 24.6973L65.4203 24.8129L65.4665 24.4662ZM65.0587 21.9242L65.5973 21.7547L65.4126 22.4865L65.0587 21.9242ZM62.3349 24.0965L63.1582 23.5804L63.0581 24.6203L62.3349 24.0965Z" fill="#FFCFA4"/>
<path id="Vector_50" d="M63.3583 23.9425L64.2046 23.4803L64.0508 24.5125L63.3583 23.9425ZM63.189 22.4789L63.9815 22.9256L63.2275 23.2723L63.189 22.4789ZM61.7271 23.4649L62.8504 23.488L62.1272 24.4124L61.7271 23.4649ZM62.9197 21.4467L63.5891 21.7856L62.9504 22.2632L62.9197 21.4467Z" fill="#FFCFA4"/>
<path id="Vector_51" d="M63.1045 22.4789L63.4276 22.0475L63.8124 22.6406L63.1045 22.4789ZM64.3356 22.9411L64.2741 23.0951L63.9201 22.6945L64.3818 22.5405L64.5818 22.0783L65.1974 22.7177L64.3356 22.9411ZM65.1358 24.6357L66.2438 24.8668L65.3975 25.4831L65.1358 24.6357Z" fill="#FFCFA4"/>
<path id="Vector_52" d="M64.2583 25.614L64.72 24.628L65.5971 25.6834L64.2583 25.614ZM62.3885 24.8668L63.7274 26.3304L64.3198 24.6897L62.3885 24.8668ZM42.5369 6.09432L43.3832 5.52429L43.3371 6.52569L42.5369 6.09432ZM41.6366 6.55651L41.6597 7.30371L40.9287 6.98018L41.6366 6.55651ZM43.1294 6.86463L42.9985 6.84152L43.3063 6.57192L43.4602 6.84923L43.8449 6.92625L43.3832 7.38845L43.1294 6.86463ZM43.7449 6.55651L44.1296 6.58732L44.3604 6.47947L44.2835 6.64894L44.3604 6.72598L44.2066 6.81841L43.9757 7.08803L43.7449 6.55651Z" fill="#FFCFA4"/>
</g>
<path id="Vector_53" d="M71.2217 9.90744C71.2217 9.90744 64.2659 9.26808 61.6037 18.0419C58.9414 26.8158 70.1291 29.8277 70.1291 29.8277C70.1291 29.8277 63.7274 27.7479 61.1882 31.1373C58.649 34.5266 60.3418 33.5252 60.3418 33.5252H81.4707C81.4707 33.5175 83.7022 11.1323 71.2141 9.89975L71.2217 9.90744Z" fill="url(#paint5_linear_1352_10283)"/>
<path id="Vector_54" d="M30.6337 9.82266L31.7109 5.81702C32.0957 4.58452 32.4573 4.61534 33.75 6.56423C35.058 8.52852 36.1506 11.0552 36.1506 11.0552C36.1506 11.0552 31.4724 9.74563 30.626 9.82266H30.6337ZM16.9915 19.4901L12.8365 19.2205C11.5592 19.1819 11.4515 19.5286 12.8826 21.3927C14.3215 23.2723 16.3451 25.1211 16.3451 25.1211C16.3451 25.1211 16.6221 20.2681 16.9761 19.4978L16.9915 19.4901Z" fill="#EDA18A"/>
<g id="Group_2">
<path id="Vector_55" d="M66.9287 10.9546L66.8055 10.97C66.8132 10.9854 66.844 10.9854 66.9287 10.9546ZM62.6274 13.3888C62.6351 13.3734 62.6428 13.3657 62.6428 13.3503L62.6274 13.3888Z" fill="#E19D77"/>
<path id="Vector_56" d="M68.1442 9.69131C67.2748 9.86077 66.7439 10.0765 66.1976 10.269C65.682 10.5232 65.1204 10.762 64.4279 11.3783C64.0431 11.6248 63.7661 11.9945 63.4506 12.3181C63.1198 12.6262 62.889 13.0268 62.6427 13.3811C62.5658 13.5737 62.3965 13.7971 62.2426 14.0436L61.8964 14.7908L61.7656 14.9294C61.7117 15.0835 61.6425 15.2684 61.5347 15.3916V15.3762L61.3347 15.9925L61.3193 15.9771L61.2269 16.2544L61.2192 16.2005C61.1192 16.6164 60.973 17.0247 60.8345 17.379L60.9115 17.3713C60.6268 18.1416 60.6807 18.4652 60.4806 19.1893V19.1739C60.5268 20.1213 60.1882 20.6683 60.4421 21.6543C60.4114 21.531 60.4114 21.7082 60.396 21.7005C60.4421 22.1627 60.5729 22.6249 60.7037 22.6095C60.7653 22.933 60.7191 22.8791 60.6807 22.933C60.7345 22.9176 60.8345 23.1872 60.9268 23.426L60.873 23.3181C60.9426 23.5552 61.0354 23.7849 61.15 24.0037L61.1962 23.8265C61.3193 24.1963 61.1192 23.9806 61.2731 24.3041L61.3501 24.2579C61.5809 24.7355 61.6117 25.0821 61.8656 25.552C62.4811 26.4764 63.3814 27.2005 64.297 27.786C65.2203 28.3791 66.1822 28.8336 67.067 29.2649L67.1209 29.3574C67.1209 29.4652 67.6826 29.419 67.7211 29.5115L67.9519 29.5423C68.0057 29.5808 68.1289 29.6424 68.0134 29.6193C68.2135 29.6963 68.2212 29.6732 68.3828 29.6963L68.5828 29.8196C69.3754 30.1046 70.0987 30.1508 70.9681 30.3203C71.199 30.3973 71.4682 30.4435 71.7991 30.4897L71.953 29.5423C70.9142 29.2881 69.5447 29.134 68.6675 29.0647C67.8673 29.0261 67.0286 28.8567 66.1591 28.7565C65.2896 28.6564 64.3894 28.5717 63.5199 28.8336C63.4477 28.8357 63.3779 28.8599 63.3199 28.9029C62.7351 29.057 62.3196 29.3343 61.8579 29.6501C61.8579 29.6501 61.4501 29.9351 61.05 30.4358C60.6345 30.9288 60.2805 31.6452 60.1497 32.2307C60.0112 32.8084 60.0574 33.2475 60.1805 33.155C60.2421 33.1088 60.319 32.947 60.4729 32.6543C60.6268 32.3693 60.8576 31.9379 61.2731 31.4526V31.4912C61.7117 30.8749 62.058 30.5899 62.4042 30.1816C62.5427 30.2355 62.9274 29.8581 63.1121 29.8273L63.0967 29.8658C63.4506 29.5885 63.9431 29.6809 64.4047 29.5731C64.3894 29.5885 64.3817 29.6193 64.2817 29.6347C64.5894 29.5808 65.0665 29.5577 65.0896 29.6347C65.8898 29.6116 67.0132 29.7502 67.5518 29.6963L67.5133 29.7117C67.8211 29.6655 67.898 29.7425 68.2366 29.7502C68.252 29.7657 68.2751 29.7734 68.2751 29.7734C68.6136 29.7348 69.2215 29.8966 69.4831 29.9043V29.9582L70.1294 30.0584L69.8986 30.0044C70.0063 29.8812 70.3602 30.1739 70.845 30.1739C71.1528 30.2509 71.4913 30.1585 71.8222 30.1585L71.8607 29.9274C71.7299 29.9428 71.5913 29.9351 71.4605 29.8966C71.2297 29.9274 71.6683 29.8196 71.3374 29.8196C71.3374 29.7425 71.4913 29.7965 71.4144 29.7271C71.0912 29.7117 70.9142 29.5731 70.5141 29.5423L70.5064 29.4806C69.9832 29.4806 69.5831 29.1956 69.2292 29.2033C68.706 29.1032 68.9368 28.9491 68.3828 28.8952L68.2058 28.7565C67.9904 28.6795 68.0135 28.7951 67.7826 28.6795C67.8134 28.641 67.4902 28.5255 67.6518 28.5255C67.1363 28.2558 66.4976 28.1788 65.8821 27.7089C65.6897 27.7166 65.382 27.4778 65.2435 27.4778C65.2435 27.4393 64.5971 27.0541 65.0126 27.2159C65.0434 27.2313 65.105 27.2621 65.0896 27.2776L65.1665 27.2544C64.8587 26.9309 64.474 26.8693 64.1662 26.592C64.2432 26.6844 64.3971 26.7846 64.274 26.746L63.9662 26.4918L64.0585 26.5072L63.643 26.099L63.6661 26.1991C63.4661 25.9911 63.4891 25.8371 63.2044 25.6599C63.0659 25.5829 63.3352 25.9064 63.1121 25.7061L62.7274 25.1361L62.3426 24.4813C62.3042 24.5583 62.2503 24.4428 62.1734 24.3272L62.2196 24.2887C61.9118 23.8805 62.2272 24.0731 61.9733 23.6417L62.0272 23.6648L61.8733 23.5878C61.5809 23.2026 61.9041 23.3181 61.5886 22.8945C61.6655 23.0871 61.4963 23.0254 61.4347 22.7712L61.5116 22.8174C61.4578 22.6865 61.4347 22.648 61.4347 22.5555C61.4809 22.6326 61.5116 22.5786 61.4732 22.3861L61.5655 22.5016L61.3885 22.1473C61.3885 21.8391 61.2885 21.377 61.3501 21.2537C61.3501 21.2537 61.3885 20.6144 61.2962 20.468C61.3424 20.5989 61.3732 20.2369 61.4501 20.3524C61.4116 20.183 61.3885 19.69 61.4886 19.5051V19.5436C61.5886 19.1893 61.604 18.8734 61.6578 18.573C61.7117 18.2726 61.7655 17.9799 61.8886 17.6718C61.8117 17.6795 61.9656 17.3636 61.8579 17.4175C62.0118 16.7243 62.4504 16.2929 62.2888 15.9539C62.4042 15.6612 62.5196 15.6458 62.5966 15.5072L62.5735 15.5842L63.1121 14.5058C63.2121 14.3132 63.1275 14.2208 63.3814 13.9126C63.3506 14.0436 63.4353 13.9049 63.5199 13.7894C63.4737 13.8664 63.4737 13.9049 63.5968 13.7663C63.5968 13.7355 63.6199 13.6892 63.6353 13.6584C63.7738 13.4504 63.743 13.4735 63.6738 13.566C63.6738 13.5583 63.6584 13.5583 63.6276 13.5814C63.7276 13.5044 63.82 13.3503 63.92 13.2347C64.0277 13.1269 64.1123 13.0422 64.1508 13.0653L64.7818 12.3181L65.4435 11.7249C65.5205 11.7172 65.4281 11.8328 65.305 11.956L65.6359 11.6787C65.6667 11.7326 65.4589 11.8559 65.3666 11.9483C65.8051 11.6941 66.1975 11.2936 66.7515 11.0779L66.8439 10.9854L66.8824 10.9777C66.867 10.9546 66.9824 10.8776 67.067 10.8237C67.1671 10.8468 67.1055 10.9392 67.3748 10.8314C67.4902 10.816 67.6441 10.7543 67.8057 10.6773L68.2904 10.5001C68.1365 10.531 68.1673 10.4924 68.2366 10.4539C68.3905 10.4154 68.4674 10.4462 68.5828 10.4L68.6136 10.477C68.5367 10.4154 68.983 10.323 69.0368 10.2999C69.1292 10.3384 68.806 10.3769 68.7829 10.4231L69.6678 10.2921C69.9755 10.2151 69.6062 10.2151 69.7447 10.1535C70.0294 10.1304 70.3064 10.0611 70.6373 10.0996C70.6041 10.0746 70.5679 10.0539 70.5295 10.038C71.0682 10.0071 71.4067 10.0148 71.7606 10.1304L73.6535 10.1458C73.9613 10.1458 73.9459 10.0688 73.8304 9.96863C73.6766 9.86079 73.415 9.73752 73.1764 9.66049C72.9456 9.58345 72.7301 9.52955 72.7301 9.52955C71.9068 9.29845 71.2682 9.29846 70.5757 9.29846C69.8832 9.36009 69.1522 9.45252 68.175 9.69902L68.1442 9.69131Z" fill="#E19D77"/>
</g>
</g>
<defs>
<linearGradient id="paint0_linear_1352_10283" x1="5.80767" y1="29.4883" x2="25.4516" y2="29.4883" gradientUnits="userSpaceOnUse">
<stop stop-color="#E39157" stop-opacity="0"/>
<stop offset="1" stop-color="#E39157"/>
</linearGradient>
<linearGradient id="paint1_linear_1352_10283" x1="53.0859" y1="30.4214" x2="29.396" y2="36.5286" gradientUnits="userSpaceOnUse">
<stop stop-color="#E39157" stop-opacity="0"/>
<stop offset="1" stop-color="#E39157"/>
</linearGradient>
<radialGradient id="paint2_radial_1352_10283" cx="0" cy="0" r="1" gradientUnits="userSpaceOnUse" gradientTransform="translate(29.7486 23.1026) scale(11.6609 11.6741)">
<stop offset="0.028" stop-color="#F4D3B3"/>
<stop offset="1" stop-color="#F4D3B3" stop-opacity="0"/>
</radialGradient>
<linearGradient id="paint3_linear_1352_10283" x1="91.0587" y1="52.4816" x2="92.7198" y2="64.3732" gradientUnits="userSpaceOnUse">
<stop stop-color="#E39157" stop-opacity="0"/>
<stop offset="1" stop-color="#E39157"/>
</linearGradient>
<linearGradient id="paint4_linear_1352_10283" x1="60.577" y1="24.5464" x2="61.8532" y2="33.6819" gradientUnits="userSpaceOnUse">
<stop stop-color="#E39157" stop-opacity="0"/>
<stop offset="1" stop-color="#E39157"/>
</linearGradient>
<linearGradient id="paint5_linear_1352_10283" x1="75.2344" y1="21.731" x2="57.2694" y2="22.0392" gradientUnits="userSpaceOnUse">
<stop stop-color="#F4D3B3" stop-opacity="0"/>
<stop offset="1" stop-color="#F4D3B3"/>
</linearGradient>
</defs>
</svg>
