<svg width="390" height="176" viewBox="0 0 390 176" fill="none" xmlns="http://www.w3.org/2000/svg">
<path d="M364.923 79.779C378.377 79.779 389.284 68.8721 389.284 55.4178C389.284 41.9635 378.377 31.0566 364.923 31.0566C351.468 31.0566 340.562 41.9635 340.562 55.4178C340.562 68.8721 351.468 79.779 364.923 79.779Z" fill="#DFEFDF"/>
<path d="M274.62 31.0331C279.459 36.3188 283.664 41.7925 287.024 47.5245C305.582 78.9568 302.575 114.665 302.575 114.665C302.575 114.665 329.168 103.858 350.969 121.383C370.373 136.935 363.185 175.18 319.255 175.18H30.7732C30.7732 175.18 1.6432 179.878 0.703518 154.366C-0.471081 122.182 38.878 128.102 38.878 128.102C38.878 128.102 27.2964 100.194 54.1947 84.031C81.093 67.892 102.118 91.7834 102.118 91.7834C102.118 91.7834 113.395 -15.6454 219.155 2.98372C226.978 4.39323 234.049 6.31957 240.486 8.73924C240.51 8.76273 262.24 17.5018 274.62 31.0097V31.0331Z" fill="#DFEFDF"/>
</svg>
