<svg width="1317" height="605" viewBox="0 0 1317 605" fill="none" xmlns="http://www.w3.org/2000/svg">
<mask id="mask0_881_7524" style="mask-type:alpha" maskUnits="userSpaceOnUse" x="0" y="3" width="1294" height="602">
<path d="M0 560C0 573.978 0 580.967 2.28361 586.481C5.32843 593.831 11.1687 599.672 18.5195 602.716C24.0326 605 31.0218 605 45 605H1236.43C1259.77 605 1271.44 605 1278.47 600.873C1287.85 595.371 1293.51 585.228 1293.28 574.36C1293.11 566.209 1286.99 556.273 1274.75 536.401L1019.15 121.421C1015.36 115.255 1013.46 112.172 1011.02 109.719C1007.78 106.448 1003.82 103.968 999.467 102.472C996.199 101.35 992.597 100.984 985.393 100.251L49.5546 5.0415C34.3218 3.49182 26.7055 2.71692 20.6582 4.69855C12.5952 7.34064 6.02813 13.2735 2.58348 21.0277C0 26.8433 0 34.499 0 49.8104V560Z" fill="#E9B4B4"/>
</mask>
<g mask="url(#mask0_881_7524)">
<g opacity="0.4">
<path d="M939.045 -115.676C929.311 -120.867 917.645 -120.933 907.853 -115.852L778.33 -48.6399C762.904 -40.6351 743.91 -46.6511 735.905 -62.077C727.9 -77.5028 733.916 -96.4971 749.342 -104.502L878.865 -171.714C907.054 -186.342 940.639 -186.152 968.662 -171.207L1093.45 -104.651C1108.79 -96.4725 1114.59 -77.4115 1106.41 -62.077C1098.23 -46.7425 1079.17 -40.9413 1063.84 -49.1197L939.045 -115.676Z" fill="#54CF00"/>
<path fill-rule="evenodd" clip-rule="evenodd" d="M921.666 435.315C1045.56 435.315 1146 334.878 1146 210.981C1146 87.085 1045.56 -13.3528 921.666 -13.3528C797.77 -13.3528 697.332 87.085 697.332 210.981C697.332 334.878 797.77 435.315 921.666 435.315ZM921.666 297.264C969.318 297.264 1007.95 258.634 1007.95 210.981C1007.95 163.329 969.318 124.699 921.666 124.699C874.014 124.699 835.384 163.329 835.384 210.981C835.384 258.634 874.014 297.264 921.666 297.264Z" fill="#54CF00"/>
<path d="M396.702 66.8981C395.808 23.8016 431.145 -11.0094 474.25 -11.0094C517.835 -11.0094 552.925 24.4182 554.432 67.9768C563.756 337.507 629.181 522.847 898.179 551.099C939.868 555.477 974.136 588.839 974.136 630.757C974.136 672.675 940.107 707.021 898.277 704.306C555.47 682.051 405.68 499.681 396.702 66.8981Z" fill="#54CF00"/>
</g>
</g>
</svg>
