<svg width="112" height="181" viewBox="0 0 112 181" fill="none" xmlns="http://www.w3.org/2000/svg">
<path d="M58.9988 145.55C58.8756 145.073 56.2518 133.456 77.5424 105.055C98.1481 77.5548 91.9464 45.3558 91.8848 45.0476L92.6389 44.8936C92.7158 45.2171 98.9791 77.732 78.1579 105.517C57.0982 133.634 59.722 145.25 59.7528 145.358L59.0064 145.55H58.9988Z" fill="#A7C4B8"/>
<path d="M37.4077 145.458C36.6057 145.458 35.8366 145.777 35.2695 146.344C34.7024 146.912 34.3838 147.682 34.3838 148.485V152.599H76.0107V148.485C76.0107 147.682 75.6921 146.912 75.125 146.344C74.558 145.777 73.7888 145.458 72.9868 145.458H37.4077Z" fill="#FFD593"/>
<path d="M37.4077 145.458C36.6057 145.458 35.8366 145.777 35.2695 146.344C34.7024 146.912 34.3838 147.682 34.3838 148.485V152.599H76.0107V148.485C76.0107 147.682 75.6921 146.912 75.125 146.344C74.558 145.777 73.7888 145.458 72.9868 145.458H37.4077Z" fill="url(#paint0_linear_1392_104)"/>
<path d="M53.6741 145.504L52.9047 145.458C52.9201 145.134 54.4436 112.666 30.4215 81.4756C10.2621 55.3004 23.1118 16.8079 23.2426 16.4227L23.9736 16.6692C23.8428 17.0544 11.1239 55.154 31.0371 81.0057C55.2284 112.434 53.6895 145.173 53.6741 145.504Z" fill="#A7C4B8"/>
<path d="M71.4635 180.969C75.48 176.917 77.9576 171.34 77.9576 165.178C77.9576 160.525 76.5418 156.196 74.1104 152.622H36.9693C34.5455 156.204 33.1221 160.533 33.1221 165.178C33.1221 171.34 35.6074 176.917 39.6162 180.969H71.4481H71.4635Z" fill="#FFD593"/>
<path d="M71.4635 180.969C75.48 176.917 77.9576 171.34 77.9576 165.178C77.9576 160.525 76.5418 156.196 74.1104 152.622H36.9693C34.5455 156.204 33.1221 160.533 33.1221 165.178C33.1221 171.34 35.6074 176.917 39.6162 180.969H71.4481H71.4635Z" fill="url(#paint1_linear_1392_104)"/>
<path d="M33.145 165.178C33.1438 167.383 33.4679 169.576 34.1068 171.687H77.0034C77.6417 169.576 77.9658 167.383 77.9652 165.178C77.966 163.472 77.7724 161.771 77.3881 160.109H33.7144C33.3297 161.727 33.145 163.421 33.145 165.178Z" fill="white"/>
<path d="M33.145 165.178C33.1438 167.383 33.4679 169.576 34.1068 171.687H77.0034C77.6417 169.576 77.9658 167.383 77.9652 165.178C77.966 163.472 77.7724 161.771 77.3881 160.109H33.7144C33.3297 161.727 33.145 163.421 33.145 165.178Z" fill="url(#paint2_linear_1392_104)"/>
<path d="M33.7148 160.109H77.3885C76.7576 157.39 75.6419 154.856 74.1184 152.614H36.9773C35.4692 154.848 34.3458 157.39 33.7148 160.109Z" fill="url(#paint3_linear_1392_104)"/>
<path d="M80.3045 23.3941C80.3045 23.3941 77.6345 32.0986 80.7508 37.668C81.6356 39.2471 82.9206 40.5027 84.321 41.4887C84.9904 41.9509 85.6752 42.3746 86.36 42.7212C87.1449 43.1295 87.922 43.4684 88.6376 43.7457C90.6074 44.516 92.1155 44.7934 92.1155 44.7934C92.1155 44.7934 95.0086 38.5538 91.6692 31.6364C88.3298 24.719 80.3045 23.3941 80.3045 23.3941ZM30.5214 16.1377C32.522 7.91848 27.9823 0.870117 27.9823 0.870117C27.9823 0.870117 19.1644 5.63065 17.3101 12.4248C15.4634 19.219 20.7187 26.8297 20.7187 26.8297C20.7187 26.8297 28.6902 23.733 30.5291 16.1531L30.5214 16.1377ZM91.9 60.5077C91.9 60.5077 91.146 53.6673 84.7057 49.4922C78.2655 45.3171 70.7172 48.3368 70.7172 48.3368C70.7172 48.3368 72.6562 57.7115 78.4886 60.3151C85.2828 63.3425 91.9 60.5154 91.9 60.5154V60.5077ZM111.921 49.9544C111.921 49.9544 102.842 49.446 98.1864 53.806C93.5312 58.166 93.9929 66.5624 93.9929 66.5624C93.9929 66.5624 100.741 67.8719 106.65 62.9727C112.552 58.0581 111.921 49.9544 111.921 49.9544ZM0.413086 46.6729C0.413086 46.6729 1.25947 55.9012 6.33781 59.9454C11.4161 63.9895 19.8031 62.2717 19.8031 62.2717C19.8031 62.2717 20.1109 55.2619 14.3092 50.0469C8.49225 44.8319 0.420782 46.6729 0.420782 46.6729H0.413086ZM39.9087 34.3787C39.9087 34.3787 41.2167 43.2527 35.115 49.0917C29.0133 54.9307 21.4959 54.0217 21.4959 54.0217C21.4959 54.0217 19.6492 45.7177 25.1122 39.6785C31.4063 32.7457 39.9087 34.3787 39.9087 34.3787ZM111.405 83.9868C111.405 83.9868 101.633 80.2354 95.0009 83.386C88.3606 86.5443 85.9214 95.8882 85.9214 95.8882C85.9214 95.8882 86.8986 96.4274 88.5376 96.9204C89.537 97.2189 90.5584 97.4378 91.5923 97.5752C92.7618 97.7292 94.0699 97.8063 95.4779 97.6907C97.2092 97.5675 99.0943 97.1823 101.033 96.3966C109.236 93.0996 111.39 83.9945 111.39 83.9945L111.405 83.9868Z" fill="#DBEAD3"/>
<path d="M92.8618 120.515C92.8618 120.515 84.1133 114.769 76.9574 116.432C69.8016 118.096 65.4312 126.716 65.4312 126.716C65.4312 126.716 71.3943 131.923 80.1045 130.444C88.8146 128.981 92.8618 120.523 92.8618 120.523V120.515Z" fill="#CEE4D0"/>
<path d="M92.8618 120.515C92.8618 120.515 84.1133 114.769 76.9574 116.432C69.8016 118.096 65.4312 126.716 65.4312 126.716C65.4312 126.716 71.3943 131.923 80.1045 130.444C88.8146 128.981 92.8618 120.523 92.8618 120.523V120.515Z" fill="url(#paint4_linear_1392_104)"/>
<path d="M16.7485 119.105C16.7485 119.105 22.9041 130.783 31.8296 133.31C40.7552 135.837 50.7965 128.996 50.7965 128.996C50.7965 128.996 47.3801 119.614 36.8695 115.939C26.3589 112.265 16.7562 119.121 16.7562 119.121L16.7485 119.105ZM68.3936 68.0954C68.3936 68.0954 67.9935 77.8321 72.741 82.7544C77.4885 87.6767 86.4525 87.045 86.4525 87.045C86.4525 87.045 87.7606 79.7887 82.4129 73.5415C77.0576 67.3019 68.3936 68.0954 68.3936 68.0954Z" fill="#CEE4D0"/>
<path d="M8.57715 86.4672C8.57715 86.4672 14.2095 95.6031 21.5808 97.1591C28.9443 98.7228 36.7388 92.6143 36.7388 92.6143C36.7388 92.6143 33.4533 85.1884 24.7355 82.7851C16.0177 80.3817 8.57715 86.4826 8.57715 86.4826V86.4672Z" fill="#DBEAD3"/>
<path d="M8.57715 86.4672C8.57715 86.4672 14.2095 95.6031 21.5808 97.1591C28.9443 98.7228 36.7388 92.6143 36.7388 92.6143C36.7388 92.6143 33.4533 85.1884 24.7355 82.7851C16.0177 80.3817 8.57715 86.4826 8.57715 86.4826V86.4672Z" fill="url(#paint5_linear_1392_104)"/>
<path d="M48.8878 90.781C48.8878 90.781 41.4241 98.4996 41.7319 106.033C42.0397 113.567 49.8649 119.622 49.8649 119.622C49.8649 119.622 56.2513 114.614 56.4206 105.548C56.6053 96.489 48.8801 90.7887 48.8801 90.7887L48.8878 90.781Z" fill="#CEE4D0"/>
<path d="M48.8878 90.781C48.8878 90.781 41.4241 98.4996 41.7319 106.033C42.0397 113.567 49.8649 119.622 49.8649 119.622C49.8649 119.622 56.2513 114.614 56.4206 105.548C56.6053 96.489 48.8801 90.7887 48.8801 90.7887L48.8878 90.781Z" fill="url(#paint6_linear_1392_104)"/>
<path d="M47.811 89.3677C47.811 89.3677 37.7697 93.1268 34.8074 100.06C31.845 106.992 36.3232 115.828 36.3232 115.828C36.3232 115.828 44.2484 114.041 48.288 105.937C52.3276 97.8334 47.811 89.3754 47.811 89.3754V89.3677Z" fill="#CEE4D0"/>
<path d="M60.7606 116.929C60.7606 116.929 57.6828 126.173 60.8914 132.22C64.1 138.267 72.8794 140.147 72.8794 140.147C72.8794 140.147 76.1341 133.522 72.7255 126.05C69.3168 118.578 60.7683 116.937 60.7683 116.937L60.7606 116.929Z" fill="#CEE4D0"/>
<path d="M91.8846 90.2921C91.6999 89.1212 90.4996 83.2437 84.7287 79.4923C78.2885 75.3172 70.7402 78.3368 70.7402 78.3368C70.7695 78.4656 70.8003 78.594 70.8326 78.722L91.8923 90.2921H91.8846Z" fill="url(#paint7_linear_1392_104)"/>
<path d="M80.2967 53.4171C80.1736 53.8177 77.7036 62.2295 80.7583 67.6679C81.6432 69.2471 82.9282 70.5027 84.3286 71.4887C84.998 71.9508 85.6828 72.3745 86.3676 72.7212C87.1524 73.1294 87.9296 73.4684 88.6451 73.7457C90.6149 74.516 92.123 74.7933 92.123 74.7933C92.123 74.7933 92.1846 74.6623 92.2769 74.4389L80.3121 53.4094L80.2967 53.4171Z" fill="url(#paint8_linear_1392_104)"/>
<path d="M47.1798 89.6296C44.933 90.5848 37.3309 94.1745 34.8148 100.067C32.2756 106.014 35.1995 113.355 36.0921 115.32C38.7851 107.563 43.925 96.4238 47.1721 89.6296H47.1798Z" fill="url(#paint9_linear_1392_104)"/>
<path d="M0.420898 76.6729C0.420898 76.6729 1.26729 85.9012 6.34562 89.9453C11.424 93.9895 19.8109 92.2717 19.8109 92.2717L0.420898 76.6729Z" fill="url(#paint10_linear_1392_104)"/>
<path d="M73.7871 80.3935L74.8643 80.7787L73.9179 81.2717L73.7871 80.3935ZM80.0735 85.131L80.1273 84.6919L80.4351 85L80.0735 85.131ZM75.4568 79.7234L75.5107 79.2766L75.8185 79.5847L75.4568 79.7234ZM83.0281 89.3831L82.8973 88.9594L83.3128 89.1135L83.0281 89.3831Z" fill="#E9F4E9"/>
<path d="M76.1111 82.4657L76.0727 82.0035L76.4343 82.2577L76.1111 82.4657ZM72.7563 81.2332L73.3719 80.3319L74.0644 81.4874L72.7563 81.2332Z" fill="#E9F4E9"/>
<path d="M72.0717 81.626L72.3794 80.8711L72.8796 81.6646L72.0717 81.626ZM73.5721 81.3949L73.4182 82.0112L72.9565 81.6492L73.5721 81.3949ZM72.4179 79.2689L72.2255 78.8298L72.7949 78.8144L72.4179 79.2689ZM73.2643 79.5L72.6872 79.8235L72.6103 79.2073L73.2643 79.5ZM76.2882 79.3459L76.519 79.9391L76.0574 79.8235L76.2882 79.3459ZM74.1876 79.0378L74.3415 79.6541L73.8799 79.4846L74.1876 79.0378ZM74.1876 78.6988L74.7262 78.5448L74.5339 79.0532L74.1876 78.6988ZM74.6262 79.3459L75.1264 79.1302L74.9879 79.6541L74.6262 79.3459ZM75.1879 80.1008L75.6957 79.8851L75.5572 80.4089L75.1879 80.1008ZM73.2951 79.5L73.449 80.1162L72.9103 79.8851L73.2951 79.5ZM72.895 81.7878L72.2255 82.6968L71.8408 81.757L72.895 81.7878ZM74.0799 81.5028L74.8494 81.68L74.4954 82.2423L74.0799 81.5028Z" fill="#E9F4E9"/>
<path d="M73.8797 79.5462L73.572 79.993L73.2796 79.4846L73.8797 79.5462ZM71.7253 79.1841L71.9869 79.2227L71.8484 79.007L72.1408 78.876L72.0639 79.2073H72.5563L72.0023 79.9313L71.7253 79.1841ZM77.8655 82.0728L77.4577 82.119L77.5654 81.7493L77.8655 82.0728ZM76.7267 84.3838L77.4961 84.8768L76.6651 85.1387L76.7267 84.3838ZM78.0193 87.4265L78.9427 87.5343L78.3271 88.1352L78.0193 87.4265ZM76.5574 81.0098L77.3269 81.5028L76.4959 81.7647L76.5574 81.0098ZM85.5445 90.2997L85.8369 90.6079L85.4291 90.554L85.5445 90.2997ZM77.1191 85.5238L77.5269 85.7549L77.0652 85.8704L77.1191 85.5238ZM71.1021 79.7773L71.7176 81.6106L72.9487 80.3396L71.1021 79.7773Z" fill="#E9F4E9"/>
<path d="M70.7017 78.5294L71.1479 79.8004L71.9174 78.6295L70.7017 78.5294ZM82.6819 89.4678L81.8355 89.2213L82.5511 88.7745L82.6819 89.4678ZM77.9421 83.6905L78.827 83.2283L78.6193 84.2451L77.9421 83.6905ZM76.4186 82.8431L77.3035 82.3809L77.0957 83.3978L76.4186 82.8431ZM73.941 85.0616L74.8259 84.5994L74.6181 85.6163L73.941 85.0616ZM74.9952 84.9461L75.88 84.4839L75.6723 85.5007L74.9952 84.9461ZM83.7514 87.8348L83.3513 87.8117L83.6206 87.5343L83.7514 87.8348ZM75.2106 80.5707L75.3183 79.7542L75.9185 80.4166L75.2106 80.5707ZM75.1183 83.8214L76.0108 83.9755L75.4107 84.5609L75.1183 83.8214ZM84.0438 88.8285L84.4593 88.9055L84.09 89.0827L84.0438 88.8285ZM73.1023 82.6352L73.5024 81.9419L74.0564 82.6814L74.2334 82.7122L73.9718 83.1205L73.6486 82.7199L73.1023 82.6352ZM78.1191 85L78.4807 84.8691L78.3653 85.2388L78.1191 85ZM73.7102 84.0217L74.8336 83.9216L74.1949 84.923L73.7102 84.0217ZM72.6868 83.6674L72.2636 82.7738L73.2639 82.951L72.6868 83.6674ZM74.3796 82.743L75.126 82.8354L74.6797 83.4979L74.3796 82.743ZM75.126 83.159L75.3568 82.666L75.8492 83.1744L75.126 83.159Z" fill="#E9F4E9"/>
<path d="M73.1104 84.0834L73.572 83.4209L74.1106 84.2297L73.1104 84.0834ZM75.3648 81.8494L75.311 82.0035L74.9262 81.6492L75.3879 81.4566L75.5418 80.9713L76.2112 81.5336L75.3648 81.8494Z" fill="#E9F4E9"/>
<path d="M73.9568 83.6751L74.0106 83.2899L73.9106 83.0588L74.0799 83.1359L74.1568 83.0588L74.2491 83.2129L74.5108 83.444L73.9568 83.6751ZM72.6025 83.7521L73.5259 85.3929L74.1799 84.0217L72.6025 83.7521ZM76.2651 85.7703L77.3269 86.1555L76.3805 86.6408L76.2651 85.7703Z" fill="#E9F4E9"/>
<path d="M75.234 86.6023L75.8496 85.701L76.5421 86.8565L75.234 86.6023ZM74.5415 86.9874L74.8493 86.2325L75.3494 87.0336L74.5415 86.9874Z" fill="#E9F4E9"/>
<path d="M76.034 86.7563L75.8801 87.388L75.4185 87.0182L76.034 86.7563Z" fill="#E9F4E9"/>
<path d="M75.6953 86.8488L75.3876 87.9272L74.7104 87.1723L75.6953 86.8488ZM75.88 85.1001L76.6648 84.9923L76.5494 85.6394L75.88 85.1001Z" fill="#E9F4E9"/>
<path d="M73.4644 85.3466L74.5647 86.9643L75.411 85.4237L73.4644 85.3466ZM75.3649 87.0028L75.4803 86.2094L76.2651 86.7178L76.4421 86.6793L76.3498 87.1415L75.8881 86.8873L75.3649 87.0028ZM76.4806 87.9811L77.4962 87.4958L77.2654 88.6513L76.4806 87.9811ZM76.596 86.6562L77.327 86.479L77.1577 87.2493L76.596 86.6562Z" fill="#E9F4E9"/>
<path d="M77.4421 86.7794L77.4882 86.2402L78.1346 86.5483L77.4421 86.7794ZM75.957 88.243L76.134 87.4727L76.9419 88.0351L75.957 88.243ZM77.142 84.6996L77.1497 84.8691L76.6572 84.6765L77.0112 84.3298L76.9804 83.8291L77.8114 84.1219L77.142 84.6996ZM76.5418 87.6499L76.4495 87.2647L76.2725 87.0799L76.4572 87.0953L76.4956 87.0028L76.6495 87.1107L76.9727 87.2416L76.5418 87.6499Z" fill="#E9F4E9"/>
<path d="M75.5264 88.0658L76.8806 89.3754L77.1114 87.881L75.5264 88.0658ZM84.3211 91.1779L84.0672 90.8082L84.5135 90.8467L84.3211 91.1779ZM83.4516 90.5617L83.1977 90.1919L83.644 90.2304L83.4516 90.5617ZM81.782 88.736L81.5357 88.3663L81.982 88.4048L81.782 88.736ZM78.2425 86.0861L78.0117 85.6856L78.4503 85.7626L78.2425 86.0861ZM79.7044 85.0385L79.3505 85.2311L79.2966 84.8459L79.7044 85.0385ZM78.9042 84.5378L78.5426 84.7304L78.4964 84.3452L78.9042 84.5378ZM79.1351 87.0413L80.0584 86.9874L79.5506 87.6807L79.1351 87.0413ZM80.1584 87.7346L80.6201 87.6576L80.3277 88.0196L80.1584 87.7346ZM78.7734 86.3018L79.112 85.8551L79.3813 86.5637L78.7734 86.3018ZM82.5976 91.2781L83.1746 90.4846L83.4593 91.486L82.5976 91.2781ZM77.4038 89.2521L77.7731 88.3509L78.2887 89.2598L77.4038 89.2521Z" fill="#E9F4E9"/>
<path d="M78.1116 88.528L78.5348 87.6422L78.9964 88.5665L78.1116 88.528ZM78.881 87.0953L79.7582 86.8796L79.4504 87.6499L78.881 87.0953ZM80.6199 86.7332L80.8277 86.4251L80.9662 86.7871L80.6199 86.7332ZM76.7266 88.3509L77.7268 87.8271L77.5499 88.9825L76.7266 88.3509ZM76.7881 87.0105L77.5037 86.8025L77.3652 87.5883L76.7881 87.0105ZM77.6345 87.103L77.6576 86.5638L78.3116 86.8333L77.6345 87.103ZM77.6884 85.9167L77.7038 86.0861L77.2036 85.909L77.5422 85.5546L77.4883 85.0539L78.3347 85.3081L77.6884 85.9167ZM79.6274 88.3046L80.7046 87.9349L80.3045 88.8978L79.6274 88.3046Z" fill="#E9F4E9"/>
<path d="M79.3966 89.5988L79.2735 88.5203L80.5662 88.9671L79.3966 89.5988ZM79.1273 90.3306L78.8657 89.5603L79.7891 89.853L79.1273 90.3306Z" fill="#E9F4E9"/>
<path d="M80.1122 89.2136L80.42 89.7914L79.8275 89.7991L80.1122 89.2136ZM80.0352 89.8915L80.2122 91.0007L79.2658 90.5925L80.0352 89.8915ZM80.5738 88.9671L81.2817 88.6205L81.3818 89.2675L80.5738 88.9671ZM77.3268 89.6989L79.0965 90.5848L79.0734 88.8285L77.3268 89.6989ZM81.2971 91.2164L80.3276 90.9083L81.1355 90.3075L81.2971 91.2164ZM81.6818 90.8313L82.3128 90.4307L82.4051 91.2241L81.6818 90.8313ZM81.9127 90.1996L81.9742 90.3229L81.5741 90.2612L81.6972 89.9531L81.5126 89.6065L82.1666 89.6835L81.9127 90.1996ZM80.8585 90.3383L80.6431 90.0147L80.4123 89.8992L80.5892 89.853L80.5969 89.7451L80.7739 89.8068H81.1278L80.8585 90.3383ZM37.1156 66.6897L36.4462 67.5986L36.2461 66.551L37.1156 66.6897ZM30.8216 71.5889L31.2294 71.7583L30.8447 71.9894L30.8216 71.5889ZM37.3003 68.4768L37.7081 68.654L37.3234 68.8697L37.3003 68.4768ZM25.1431 73.1218L25.5816 73.1988L25.2508 73.4915L25.1431 73.1218Z" fill="#E9F4E9"/>
<path d="M34.4839 68.3227L34.9302 68.4152L34.5839 68.6925L34.4839 68.3227ZM36.6076 65.4572L37.3001 66.3045L35.992 66.6435L36.6076 65.4572Z" fill="#E9F4E9"/>
<path d="M36.4231 64.6869L37.0541 65.1953L36.1461 65.4572L36.4231 64.6869ZM36.2308 66.189L35.6691 65.8577L36.1461 65.5265L36.2308 66.189ZM38.5776 65.6806L39.0623 65.6189L38.9084 66.1582L38.5776 65.6806ZM38.1313 66.4355L37.9774 65.7961L38.593 65.8962L38.1313 66.4355ZM37.4234 69.5167L36.7925 69.5707L37.0233 69.1547L37.4234 69.5167ZM38.316 67.46L37.685 67.4369L37.9697 67.0517L38.316 67.46ZM38.6391 67.5524V68.1148L38.2083 67.7758L38.6391 67.5524ZM37.9005 67.7835L37.9774 68.3227L37.5158 68.0454L37.9005 67.7835ZM37.0079 68.1148L37.0849 68.654L36.6232 68.3767L37.0079 68.1148ZM38.1159 66.474L37.5004 66.4509L37.8697 65.9887L38.1159 66.474ZM36.0384 65.4418L35.3459 64.5405L36.3462 64.4404L36.0384 65.4418ZM35.9923 66.6589L35.6075 67.3521L35.1689 66.8591L35.9923 66.6589Z" fill="#E9F4E9"/>
<path d="M37.9005 67.013L37.5619 66.6048L38.1313 66.4661L37.9005 67.013ZM38.8469 65.041L38.7392 65.2721L38.9854 65.1951L39.0238 65.5186L38.7315 65.3492L38.593 65.8114L38.0543 65.0796L38.8469 65.041ZM34.361 70.2792L34.438 69.8786L34.7611 70.0789L34.361 70.2792ZM32.4528 68.546L31.7603 69.1622L31.7372 68.2918L32.4528 68.546ZM29.175 68.9696L28.821 69.817L28.4132 69.0698L29.175 68.9696ZM35.746 69.3163L35.0535 69.9325L35.0304 69.0544L35.746 69.3163ZM23.1887 74.901L22.7886 75.0166L23.0194 74.6853L23.1887 74.901ZM31.2525 68.623L30.9216 68.9619L30.937 68.4843L31.2525 68.623ZM38.4622 64.2553L36.5385 64.3478L37.408 65.8884L38.4622 64.2553Z" fill="#E9F4E9"/>
<path d="M39.7703 64.2401L38.4238 64.3171L39.3318 65.3724L39.7703 64.2401ZM25.2278 72.752L25.8434 72.1127L25.8973 72.96L25.2278 72.752ZM32.7684 69.925L32.9684 70.8956L32.0451 70.4334L32.7684 69.925ZM34.0149 68.5384L34.2072 69.5167L33.2839 69.0314L34.0149 68.5384ZM32.5376 65.7114L32.7376 66.682L31.8143 66.2044L32.5376 65.7114ZM32.3529 66.7436L32.5453 67.7219L31.6219 67.2443L32.3529 66.7436ZM27.1976 74.4005L27.3284 74.0154L27.5208 74.3466L27.1976 74.4005ZM36.531 68.0069L37.2773 68.3382L36.4771 68.7233L36.531 68.0069ZM33.3993 67.1827L33.0146 68.0069L32.6145 67.2597L33.3993 67.1827ZM25.1663 74.2541L24.897 74.5854L24.9124 74.1771L25.1663 74.2541ZM35.146 65.4109L35.7 65.9887L34.8382 66.3122L34.7613 66.4663L34.4535 66.1042L34.9305 65.904L35.146 65.4109ZM31.4526 69.7247L31.4834 70.1099L31.1603 69.8942L31.4526 69.7247ZM33.6071 65.7653L33.3993 66.8746L32.6299 65.9887L33.6071 65.7653ZM34.2611 64.7177L35.246 64.5636L34.7843 65.4726L34.2611 64.7177ZM34.6843 66.6126L34.3919 67.3059L33.8764 66.6897L34.6843 66.6126ZM34.0687 67.2058L34.4689 67.5755L33.8533 67.9068L34.0687 67.2058Z" fill="#E9F4E9"/>
<path d="M33.7685 65.0104L34.2764 65.6266L33.353 65.9348L33.7685 65.0104ZM35.2766 67.7835L35.1381 67.6834L35.5998 67.4138L35.6537 67.8991L36.0769 68.1918L35.3459 68.6771L35.2766 67.7835Z" fill="#E9F4E9"/>
<path d="M33.9226 65.9194L34.2766 66.0735L34.5305 66.0426L34.4074 66.1813L34.4612 66.2737L34.2843 66.32L33.9919 66.5048L33.9226 65.9194ZM34.2304 64.6099L32.4068 65.0335L33.5379 66.0503L34.2304 64.6099ZM31.2527 67.7527L30.5832 68.6771L30.3755 67.6295L31.2527 67.7527Z" fill="#E9F4E9"/>
<path d="M30.7137 66.5279L31.4062 67.3753L30.0981 67.7219L30.7137 66.5279ZM30.5367 65.7576L31.1754 66.266L30.2674 66.5279L30.5367 65.7576Z" fill="#E9F4E9"/>
<path d="M30.36 67.2597L29.7983 66.9362L30.26 66.5973L30.36 67.2597Z" fill="#E9F4E9"/>
<path d="M30.3676 66.8977L29.4058 66.3045L30.3291 65.8578L30.3676 66.8977ZM31.9988 67.5524L31.8834 68.3227L31.2986 68.0377L31.9988 67.5524Z" fill="#E9F4E9"/>
<path d="M32.4221 65.1645L30.5755 65.7807L31.8296 67.0132L32.4221 65.1645ZM30.3138 66.5356L31.0371 66.8669L30.3446 67.4831V67.668L29.9214 67.4523L30.2908 67.0826L30.3138 66.5356ZM29.0597 67.3522L29.252 68.4537L28.2056 67.9145L29.0597 67.3522ZM30.3061 67.8144L30.2754 68.5693L29.5829 68.1841L30.3061 67.8144Z" fill="#E9F4E9"/>
<path d="M29.9444 68.6078L30.4522 68.7926L29.9906 69.3318L29.9444 68.6078ZM28.9441 66.7821L29.6366 67.1673L28.8672 67.7989L28.9441 66.7821ZM32.0219 68.8774L31.8526 68.8388L32.1758 68.4152L32.4066 68.8466L32.8991 68.9544L32.3912 69.6785L32.0219 68.8774ZM29.3519 67.4908L29.7367 67.5062L29.9675 67.3829L29.9059 67.5601L29.9829 67.6218L29.829 67.7296L29.6212 68.0146L29.3519 67.4908Z" fill="#E9F4E9"/>
<path d="M29.2518 66.3969L27.6129 67.3444L28.9979 67.9761L29.2518 66.3969ZM22.9731 73.4222L23.4194 73.3683L23.1732 73.7534L22.9731 73.4222ZM23.9273 72.9292L24.3658 72.883L24.135 73.2681L23.9273 72.9292ZM26.8973 72.2513L27.3205 72.1127L27.1666 72.5363L26.8973 72.2513ZM30.406 69.5706L30.8523 69.4628L30.6445 69.8633L30.406 69.5706ZM31.0061 71.2499L30.9138 70.8493L31.2985 70.9033L31.0061 71.2499ZM31.714 70.6183L31.6217 70.2331L32.0064 70.287L31.714 70.6183ZM29.2518 70.1561L29.0518 71.065L28.5131 70.3872L29.2518 70.1561ZM28.3131 70.9495L28.2361 71.4117L27.9668 71.0265L28.3131 70.9495ZM30.052 70.0097L30.3906 70.4719L29.6365 70.5335L30.052 70.0097ZM23.6887 71.8585L24.1273 72.7366L23.1039 72.5209L23.6887 71.8585ZM27.5898 67.8991L28.3593 68.4999L27.3436 68.7541L27.5898 67.8991Z" fill="#E9F4E9"/>
<path d="M28.0975 68.7849L28.8362 69.432L27.8129 69.6323L28.0975 68.7849ZM29.2517 69.9019L29.2209 70.8108L28.5592 70.2947L29.2517 69.9019ZM29.1286 71.6736L29.3825 71.9586L28.9978 71.9894L29.1286 71.6736ZM28.6362 67.4831L28.867 68.5769L27.7898 68.0916L28.6362 67.4831ZM29.9134 67.8991V68.654L29.1979 68.2996L29.9134 67.8991ZM29.5903 68.7002L30.1058 68.8697L29.6672 69.432L29.5903 68.7002ZM30.7137 69.0699L30.5598 69.0391L30.8675 68.6001L31.1215 69.0237L31.6216 69.1008L31.1369 69.8402L30.7137 69.0699ZM27.8821 70.2793L27.959 71.4194L27.1357 70.7723L27.8821 70.2793Z" fill="#E9F4E9"/>
<path d="M26.7129 69.7093L27.7747 69.8942L26.9899 71.0111L26.7129 69.7093ZM26.1281 69.2086L26.9284 69.3318L26.2359 70.002L26.1281 69.2086ZM26.6668 70.5952L26.0204 70.5875L26.282 70.0637L26.6668 70.5952ZM26.1051 70.21L25.0278 69.8557L25.8358 69.2086L26.1051 70.21Z" fill="#E9F4E9"/>
<path d="M26.6664 71.119L26.6433 71.9124L26.0278 71.7044L26.6664 71.119ZM27.1742 67.6911L25.8431 69.1547L27.5359 69.6169L27.1742 67.6911ZM24.3427 70.7107L25.0583 69.9943L25.2122 70.9957L24.3427 70.7107ZM24.4966 71.2499L24.5735 71.9894L23.8271 71.7121L24.4966 71.2499ZM24.9428 71.7275H24.812L25.0429 71.4194L25.2506 71.6659L25.6353 71.6582L25.266 72.1974L24.9428 71.7275ZM25.3276 70.7261L25.7123 70.6876L25.92 70.5336L25.8816 70.7184L25.9585 70.7724L25.8277 70.8956L25.6507 71.2037L25.3276 70.7261Z" fill="#E9F4E9"/>
<defs>
<linearGradient id="paint0_linear_1392_104" x1="47.1589" y1="149.028" x2="88.7935" y2="149.028" gradientUnits="userSpaceOnUse">
<stop offset="0.229" stop-color="#E39157" stop-opacity="0"/>
<stop offset="0.877" stop-color="#E39157"/>
</linearGradient>
<linearGradient id="paint1_linear_1392_104" x1="45.6548" y1="166.792" x2="94.99" y2="166.792" gradientUnits="userSpaceOnUse">
<stop offset="0.229" stop-color="#E39157" stop-opacity="0"/>
<stop offset="0.877" stop-color="#E39157"/>
</linearGradient>
<linearGradient id="paint2_linear_1392_104" x1="33.145" y1="165.898" x2="77.9652" y2="165.898" gradientUnits="userSpaceOnUse">
<stop stop-color="#E4EBF8" stop-opacity="0"/>
<stop offset="1" stop-color="#E4EBF8"/>
</linearGradient>
<linearGradient id="paint3_linear_1392_104" x1="55.5517" y1="159.447" x2="55.5517" y2="147.717" gradientUnits="userSpaceOnUse">
<stop stop-color="#E39157" stop-opacity="0"/>
<stop offset="1" stop-color="#E39157"/>
</linearGradient>
<linearGradient id="paint4_linear_1392_104" x1="65.4312" y1="123.405" x2="92.8618" y2="123.405" gradientUnits="userSpaceOnUse">
<stop offset="0.353" stop-color="#B5D9CD" stop-opacity="0"/>
<stop offset="0.536" stop-color="#A5D0C7" stop-opacity="0.142"/>
<stop offset="0.807" stop-color="#92C6C1" stop-opacity="0.35"/>
<stop offset="1" stop-color="#8CC2BF" stop-opacity="0.5"/>
</linearGradient>
<linearGradient id="paint5_linear_1392_104" x1="8.57715" y1="89.808" x2="36.7388" y2="89.808" gradientUnits="userSpaceOnUse">
<stop offset="0.353" stop-color="#B5D9CD" stop-opacity="0"/>
<stop offset="0.536" stop-color="#A5D0C7" stop-opacity="0.142"/>
<stop offset="0.807" stop-color="#92C6C1" stop-opacity="0.35"/>
<stop offset="1" stop-color="#8CC2BF" stop-opacity="0.5"/>
</linearGradient>
<linearGradient id="paint6_linear_1392_104" x1="48.6023" y1="93.3862" x2="49.6148" y2="119.068" gradientUnits="userSpaceOnUse">
<stop offset="0.353" stop-color="#B5D9CD" stop-opacity="0"/>
<stop offset="0.536" stop-color="#A5D0C7" stop-opacity="0.142"/>
<stop offset="0.807" stop-color="#92C6C1" stop-opacity="0.35"/>
<stop offset="1" stop-color="#8CC2BF" stop-opacity="0.5"/>
</linearGradient>
<linearGradient id="paint7_linear_1392_104" x1="70.7248" y1="83.7868" x2="91.8769" y2="83.7868" gradientUnits="userSpaceOnUse">
<stop offset="0.353" stop-color="#B5D9CD" stop-opacity="0"/>
<stop offset="0.536" stop-color="#A5D0C7" stop-opacity="0.142"/>
<stop offset="0.807" stop-color="#92C6C1" stop-opacity="0.35"/>
<stop offset="1" stop-color="#8CC2BF" stop-opacity="0.5"/>
</linearGradient>
<linearGradient id="paint8_linear_1392_104" x1="87.2655" y1="62.1486" x2="82.7063" y2="70.5823" gradientUnits="userSpaceOnUse">
<stop offset="0.353" stop-color="#B5D9CD" stop-opacity="0"/>
<stop offset="0.536" stop-color="#A5D0C7" stop-opacity="0.142"/>
<stop offset="0.807" stop-color="#92C6C1" stop-opacity="0.35"/>
<stop offset="1" stop-color="#8CC2BF" stop-opacity="0.5"/>
</linearGradient>
<linearGradient id="paint9_linear_1392_104" x1="38.2357" y1="91.6086" x2="42.5381" y2="105.846" gradientUnits="userSpaceOnUse">
<stop offset="0.353" stop-color="#B5D9CD" stop-opacity="0"/>
<stop offset="0.536" stop-color="#A5D0C7" stop-opacity="0.142"/>
<stop offset="0.807" stop-color="#92C6C1" stop-opacity="0.35"/>
<stop offset="1" stop-color="#8CC2BF" stop-opacity="0.5"/>
</linearGradient>
<linearGradient id="paint10_linear_1392_104" x1="0.420898" y1="84.6533" x2="19.8032" y2="84.6533" gradientUnits="userSpaceOnUse">
<stop offset="0.353" stop-color="#B5D9CD" stop-opacity="0"/>
<stop offset="0.536" stop-color="#A5D0C7" stop-opacity="0.142"/>
<stop offset="0.807" stop-color="#92C6C1" stop-opacity="0.35"/>
<stop offset="1" stop-color="#8CC2BF" stop-opacity="0.5"/>
</linearGradient>
</defs>
</svg>
