<svg width="860" height="294" viewBox="0 0 860 294" fill="none" xmlns="http://www.w3.org/2000/svg">
<path d="M179.041 22.4011C175.83 20.6886 171.982 20.6669 168.752 22.343L126.027 44.5137C120.939 47.1542 114.673 45.1697 112.033 40.0813V40.0813C109.392 34.9929 111.377 28.7274 116.465 26.0869L159.19 3.91619C168.488 -0.909096 179.567 -0.846573 188.811 4.08339L229.975 26.0377C235.033 28.7355 236.947 35.023 234.249 40.0813V40.0813C231.551 45.1396 225.264 47.0532 220.206 44.3554L179.041 22.4011Z" fill="#03E05C"/>
<path fill-rule="evenodd" clip-rule="evenodd" d="M173.308 204.153C214.177 204.153 247.308 171.022 247.308 130.153C247.308 89.2843 214.177 56.1536 173.308 56.1536C132.439 56.1536 99.3087 89.2843 99.3087 130.153C99.3087 171.022 132.439 204.153 173.308 204.153ZM173.308 158.615C189.027 158.615 201.77 145.872 201.77 130.153C201.77 114.434 189.027 101.692 173.308 101.692C157.589 101.692 144.847 114.434 144.847 130.153C144.847 145.872 157.589 158.615 173.308 158.615Z" fill="#134F3D"/>
<path d="M0.142157 82.6254C-0.152727 68.4095 11.5034 56.9266 25.7224 56.9266V56.9266C40.0994 56.9266 51.6744 68.6129 52.1714 82.9812C55.247 171.889 76.8283 233.026 165.561 242.345C179.312 243.79 190.616 254.795 190.616 268.622V268.622C190.616 282.449 179.391 293.778 165.593 292.883C52.5136 285.542 3.10344 225.385 0.142157 82.6254Z" fill="#134F3D"/>
<path d="M480.765 246.046C490.536 241.397 502.686 243.35 508.873 252.228V252.228C515.061 261.106 512.92 273.459 503.341 278.496C484.398 288.456 464.764 293.658 445.998 293.658C434.3 293.658 423.089 291.709 412.854 287.809C398.719 281.96 386.533 273.187 376.785 265.388C355.826 248.329 336.817 229.32 320.245 208.361L315.371 214.21C315.371 232.584 315.371 250.959 315.371 269.53C315.371 280.393 306.493 289.161 295.631 289.025V289.025C284.959 288.891 276.378 280.201 276.378 269.528C276.378 204.31 276.378 140.568 276.378 76.0315C276.378 65.359 284.959 56.6692 295.631 56.5358V56.5358C306.493 56.4 315.371 65.1683 315.371 76.0312C315.371 98.8333 315.371 121.281 315.371 143.938C315.371 145.853 317.804 146.673 318.963 145.148L380.667 64.0038C384.363 59.143 390.119 56.2891 396.225 56.2891V56.2891C412.413 56.2891 421.584 74.8407 411.755 87.7026L344.129 176.192L348.028 181.066C364.112 201.05 382.147 219.084 401.643 235.169C409.442 241.505 417.728 247.842 426.988 251.254C442.41 257.272 461.604 255.163 480.765 246.046Z" fill="#134F3D"/>
<path d="M514.192 203.513C506.39 203.513 499.503 198.416 497.223 190.955L496.901 189.901C496.308 187.96 494.516 186.634 492.487 186.634H463.191C461.187 186.634 459.429 187.97 458.893 189.901L458.686 190.643C456.574 198.249 449.649 203.513 441.755 203.513V203.513C430.105 203.513 421.679 192.383 424.842 181.17L457.109 66.7693C458.731 61.0177 463.721 56.8543 469.67 56.2891V56.2891H485.821V56.2891C492.173 56.8537 497.516 61.2838 499.247 67.4216L531.269 180.953C534.462 192.275 525.955 203.513 514.192 203.513V203.513ZM478.086 122.399L469.646 151.469H486.057L478.086 122.399Z" fill="#134F3D"/>
<path d="M608.143 245.078C608.143 250.049 612.173 254.078 617.143 254.078H719.463C730.393 254.078 739.253 262.939 739.253 273.869V273.869C739.253 284.798 730.393 293.659 719.463 293.659H590.563C578.413 293.659 568.563 283.809 568.563 271.659V76.9565C568.563 66.0267 577.423 57.1664 588.353 57.1664V57.1664C599.283 57.1664 608.143 66.0267 608.143 76.9565V245.078Z" fill="#134F3D"/>
<path d="M808.348 66.5275C811.836 60.4323 818.321 56.6716 825.343 56.6716V56.6716C840.58 56.6716 849.979 73.3067 842.117 86.3577L788.942 174.628C786.878 178.054 785.787 181.979 785.787 185.98V272.879C785.787 283.809 776.927 292.669 765.997 292.669V292.669C755.067 292.669 746.207 283.809 746.207 272.879V186.084C746.207 182.018 745.08 178.031 742.951 174.567L688.503 85.9558C680.634 73.1489 689.849 56.6716 704.88 56.6716V56.6716C711.773 56.6716 718.139 60.3631 721.563 66.3461L761.535 136.197C763.072 138.882 766.943 138.882 768.479 136.197L808.348 66.5275Z" fill="#134F3D"/>
</svg>
