<svg width="112" height="40" viewBox="0 0 112 40" fill="none" xmlns="http://www.w3.org/2000/svg">
<path d="M23.3018 3.78366C22.8839 3.56078 22.3831 3.55795 21.9627 3.7761L16.4021 6.66157C15.7399 7.00522 14.9244 6.74695 14.5808 6.0847C14.2371 5.42245 14.4954 4.60701 15.1577 4.26336L20.7182 1.37789C21.9284 0.749892 23.3702 0.758029 24.5733 1.39965L29.9307 4.25696C30.5891 4.60807 30.8381 5.42637 30.487 6.0847C30.1359 6.74303 29.3176 6.99208 28.6593 6.64097L23.3018 3.78366Z" fill="#03E05C"/>
<path fill-rule="evenodd" clip-rule="evenodd" d="M22.5557 27.4382C27.8747 27.4382 32.1866 23.1263 32.1866 17.8074C32.1866 12.4884 27.8747 8.17648 22.5557 8.17648C17.2367 8.17648 12.9248 12.4884 12.9248 17.8074C12.9248 23.1263 17.2367 27.4382 22.5557 27.4382ZM22.5557 21.5115C24.6015 21.5115 26.2599 19.8531 26.2599 17.8074C26.2599 15.7616 24.6015 14.1032 22.5557 14.1032C20.5099 14.1032 18.8515 15.7616 18.8515 17.8074C18.8515 19.8531 20.5099 21.5115 22.5557 21.5115Z" fill="#134F3D"/>
<path d="M0.0185014 11.6217C-0.0198771 9.77155 1.49714 8.27708 3.34771 8.27708C5.21884 8.27708 6.7253 9.79802 6.78999 11.668C7.19027 23.2392 9.99904 31.196 21.5474 32.4089C23.3371 32.5969 24.8083 34.0292 24.8083 35.8287C24.8083 37.6283 23.3474 39.1028 21.5516 38.9862C6.83453 38.0308 0.403906 30.2015 0.0185014 11.6217Z" fill="#134F3D"/>
<path d="M62.5701 32.8906C63.8419 32.2855 65.4231 32.5397 66.2284 33.6951C67.0337 34.8506 66.7551 36.4583 65.5085 37.1138C63.0431 38.4101 60.4877 39.0872 58.0453 39.0872C56.5228 39.0872 55.0638 38.8334 53.7317 38.3259C51.892 37.5647 50.3061 36.4229 49.0374 35.4079C46.3097 33.1877 43.8357 30.7137 41.6789 27.986L41.0446 28.7472C41.0446 31.1385 41.0446 33.5299 41.0446 35.9469C41.0446 37.3607 39.8891 38.5018 38.4754 38.4841C37.0865 38.4668 35.9697 37.3357 35.9697 35.9467C35.9697 27.4587 35.9697 19.1628 35.9697 10.7635C35.9697 9.37452 37.0865 8.24357 38.4754 8.22621C39.8891 8.20853 41.0446 9.3497 41.0446 10.7635C41.0446 13.4897 41.0446 16.177 41.0446 18.8823C41.0446 19.3636 41.6559 19.5697 41.9473 19.1865L49.5427 9.19814C50.0237 8.56553 50.7728 8.19409 51.5675 8.19409C53.6743 8.19409 54.8679 10.6085 53.5887 12.2825L44.7873 23.7992L45.2947 24.4336C47.3881 27.0344 49.7352 29.3815 52.2726 31.4749C53.2876 32.2996 54.366 33.1242 55.5713 33.5683C57.5783 34.3515 60.0765 34.077 62.5701 32.8906Z" fill="#134F3D"/>
<path d="M66.9206 27.3549C65.9051 27.3549 65.0088 26.6916 64.7121 25.7205L64.6702 25.5833C64.593 25.3307 64.3598 25.1582 64.0957 25.1582H60.2829C60.0221 25.1582 59.7933 25.3321 59.7235 25.5833L59.6966 25.68C59.4217 26.6699 58.5204 27.3549 57.493 27.3549C55.9768 27.3549 54.8803 25.9064 55.2919 24.4471L59.4913 9.55806C59.7024 8.80951 60.3519 8.26766 61.1262 8.1941H63.2281C64.0548 8.26758 64.7502 8.84415 64.9755 9.64297L69.1431 24.4188C69.5587 25.8923 68.4515 27.3549 66.9206 27.3549ZM62.2214 16.7982L61.1231 20.5815H63.2588L62.2214 16.7982Z" fill="#134F3D"/>
<path d="M79.1484 28.982C79.1484 31.718 81.3663 33.9359 84.1023 33.9359H93.6364C95.0588 33.9359 96.212 35.0891 96.212 36.5116C96.212 37.9341 95.0588 39.0872 93.6363 39.0872H85.1045C78.9701 39.0872 73.9971 34.1143 73.9971 27.9798V10.8839C73.9971 9.46145 75.1502 8.30829 76.5727 8.30829C77.9952 8.30829 79.1484 9.46144 79.1484 10.8839V28.982Z" fill="#134F3D"/>
<path d="M105.205 9.52662C105.658 8.73334 106.502 8.2439 107.416 8.2439C109.399 8.2439 110.623 10.4089 109.599 12.1075L103.579 22.1011C102.722 23.5249 102.268 25.1556 102.268 26.8178V36.3828C102.268 37.8053 101.115 38.9584 99.6926 38.9584C98.2701 38.9584 97.117 37.8053 97.117 36.3828V26.8461C97.117 25.1665 96.6515 23.5197 95.7722 22.0886L89.607 12.0552C88.5828 10.3884 89.7821 8.2439 91.7384 8.2439C92.6356 8.2439 93.4641 8.72433 93.9097 9.50301L97.3075 15.4406C98.3059 17.1852 100.822 17.1852 101.82 15.4406L105.205 9.52662Z" fill="#134F3D"/>
</svg>
